<svg width="327" height="218" viewBox="0 0 327 218" fill="none" xmlns="http://www.w3.org/2000/svg">
<g clip-path="url(#clip0_1188_823)">
<rect width="327" height="218" fill="white"/>
<mask id="mask0_1188_823" style="mask-type:luminance" maskUnits="userSpaceOnUse" x="0" y="0" width="327" height="218">
<path d="M327 0H0V218H327V0Z" fill="white"/>
</mask>
<g mask="url(#mask0_1188_823)">
<path d="M167.811 75.6217C157.355 74.0782 147.446 69.8216 138.896 63.3679C126.125 53.7284 99.3984 37.3252 73.9029 45.4954C38.7369 56.7651 38.5799 89.3674 47.7398 107.077C56.8997 124.787 121.856 176.648 206.066 168.396C281.421 161.012 296.106 76.4876 255.916 61.1927C221.059 47.9269 209.167 81.7274 167.811 75.6217Z" fill="#E4E1CC"/>
<path d="M279.563 63.1115C279.563 65.0539 278.1 66.6283 276.295 66.6283C274.49 66.6283 273.028 65.0539 273.028 63.1115C273.028 61.1691 274.49 59.5947 276.295 59.5947C278.1 59.5947 279.563 61.1691 279.563 63.1115Z" fill="#E4E1CC"/>
<path d="M62.9688 39.9442C63.9716 39.7598 64.9853 40.3148 65.3385 41.2714C65.9402 42.9034 64.3636 44.7306 62.2416 43.911C60.4113 42.5554 61.2083 40.2682 62.9688 39.9442Z" fill="#E4E1CC"/>
<path d="M271.631 31.6768C271.631 34.0277 269.725 35.933 267.374 35.933C265.024 35.933 263.118 34.0277 263.118 31.6768C263.118 29.3259 265.024 27.4205 267.374 27.4205C269.725 27.4205 271.631 29.3259 271.631 31.6768Z" fill="#E4E1CC"/>
<path d="M75.871 36.5878C76.5119 38.8746 75.1782 41.2478 72.8914 41.8891C70.6045 42.5301 68.2314 41.1959 67.59 38.9095C66.9491 36.6227 68.2833 34.2491 70.5697 33.6082C72.8565 32.9673 75.2301 34.301 75.871 36.5878Z" fill="#E4E1CC"/>
<path d="M245.996 164.69C246.948 164.322 248.047 164.679 248.571 165.553C249.467 167.044 248.258 169.133 246.02 168.723C243.969 167.731 244.327 165.335 245.996 164.69Z" fill="#E4E1CC"/>
<path d="M258.05 158.992C259.105 161.12 258.236 163.7 256.108 164.755C253.98 165.81 251.4 164.941 250.345 162.813C249.29 160.686 250.159 158.106 252.287 157.051C254.415 155.996 256.995 156.865 258.05 158.992Z" fill="#E4E1CC"/>
<path d="M261.974 25.1629C261.974 26.6087 260.802 27.7811 259.355 27.7811C257.909 27.7811 256.737 26.6087 256.737 25.1629C256.737 23.7167 257.909 22.5443 259.355 22.5443C260.802 22.5443 261.974 23.7167 261.974 25.1629Z" fill="#E4E1CC"/>
<path d="M268.948 72.5993C268.944 49.207 249.468 23.5746 225.228 22.0263C224.802 21.9993 224.372 21.9753 223.937 21.9553C189.186 20.3355 186.538 62.72 155.097 67.5003C123.656 72.2806 99.6447 48.148 62.0232 63.8932C28.234 78.034 19.082 157.495 118.36 160.68C197.791 163.23 268.958 142.39 268.948 72.5993Z" fill="#E4E1CC"/>
<path d="M115.427 42.646C115.427 49.094 110.134 54.3216 103.604 54.3216C97.075 54.3216 91.7823 49.094 91.7823 42.646C91.7823 36.1975 97.075 30.9703 103.604 30.9703C110.134 30.9703 115.427 36.1975 115.427 42.646Z" fill="#E4E1CC"/>
<path d="M115.427 41.1261C115.427 47.5745 110.134 52.8017 103.604 52.8017C97.075 52.8017 91.7823 47.5745 91.7823 41.1261C91.7823 34.6776 97.075 29.4504 103.604 29.4504C110.134 29.4504 115.427 34.6776 115.427 41.1261Z" fill="#F7D707"/>
<path d="M103.604 50.6178C98.3049 50.6178 93.9933 46.3599 93.9933 41.1261C93.9933 35.8924 98.3049 31.6344 103.604 31.6344C108.904 31.6344 113.216 35.8924 113.216 41.1261C113.216 46.3599 108.904 50.6178 103.604 50.6178Z" fill="#FEF5BD"/>
<path d="M113.216 41.1265C113.216 41.3794 113.205 41.6296 113.186 41.8764C112.797 36.9915 108.648 33.1337 103.605 33.1337C98.5604 33.1337 94.4114 36.9915 94.0229 41.8764C94.0033 41.6296 93.9933 41.3794 93.9933 41.1265C93.9933 35.8923 98.3045 31.6348 103.605 31.6348C108.904 31.6348 113.216 35.8923 113.216 41.1265Z" fill="#E4E1CC"/>
<path d="M104.264 41.858L110.461 37.3663C110.568 37.2893 110.593 37.1384 110.517 37.0311C110.44 36.9229 110.292 36.898 110.185 36.9751L103.834 41.5783C103.771 41.6238 103.736 41.6956 103.735 41.7697C103.734 41.8024 103.74 41.8352 103.753 41.8668C103.753 41.8668 103.806 42.1904 104.264 41.858Z" fill="#3B3A39"/>
<path d="M103.688 41.5857L108.938 39.368C109.06 39.3164 109.201 39.3722 109.254 39.493C109.306 39.6134 109.249 39.7533 109.127 39.8049L103.701 42.0973C103.67 42.1105 103.637 42.1163 103.604 42.116C103.53 42.1153 103.458 42.0806 103.412 42.0183C103.412 42.0183 103.171 41.8041 103.688 41.5857Z" fill="#3B3A39"/>
<path d="M283.27 185.073C283.27 187.256 248.972 189.024 206.663 189.024C164.353 189.024 130.054 187.256 130.054 185.073C130.054 182.89 164.353 181.121 206.663 181.121C248.972 181.121 283.27 182.89 283.27 185.073Z" fill="#E4E1CC"/>
<path d="M258.552 174.012H247.935V185.052H260.35V175.809C260.35 174.816 259.545 174.012 258.552 174.012Z" fill="#E4E1CC"/>
<path d="M227.996 174.012H191.145V150.354H227.996V174.012Z" fill="#E4E1CC"/>
<path d="M256.173 185.052H154.511V180.954C154.511 177.119 157.619 174.012 161.453 174.012H249.23C253.064 174.012 256.173 177.119 256.173 180.954V185.052Z" fill="#FEF5BD"/>
<path d="M223.48 174.012H186.629V150.354H223.48V174.012Z" fill="#FEF5BD"/>
<path d="M186.629 157.618L223.48 154.667L223.485 150.354H186.677L186.629 157.618Z" fill="#E4E1CC"/>
<path d="M288.886 52.6614V145.436C288.886 148.155 286.681 150.36 283.962 150.36H126.619C123.9 150.36 121.695 148.155 121.695 145.436V52.6614C121.695 49.9425 123.9 47.7377 126.619 47.7377H283.962C286.681 47.7377 288.886 49.9425 288.886 52.6614Z" fill="#E4E1CC"/>
<path d="M288.885 52.6614V138.576H273.664V47.7377H283.962C286.68 47.7377 288.885 49.9425 288.885 52.6614Z" fill="#5A5958"/>
<path d="M282.624 52.6614V145.436C282.624 148.155 280.42 150.36 277.701 150.36H126.618C123.899 150.36 121.695 148.155 121.695 145.436V52.6614C121.695 49.9425 123.899 47.7377 126.618 47.7377H277.701C277.774 47.7377 277.847 47.739 277.919 47.7425C277.973 47.7451 278.026 47.7473 278.079 47.7525H278.085C278.123 47.7551 278.161 47.7586 278.199 47.7634C278.263 47.7682 278.326 47.7769 278.389 47.7856C278.431 47.7904 278.472 47.7965 278.513 47.8053C278.533 47.8079 278.553 47.8114 278.572 47.8148C278.613 47.8209 278.652 47.8288 278.693 47.8384C280.937 48.2975 282.624 50.2822 282.624 52.6614Z" fill="#FEF5BD"/>
<path d="M278.693 47.8384C278.653 47.8288 278.613 47.8214 278.573 47.8153C278.553 47.8114 278.534 47.8079 278.514 47.8053C278.472 47.797 278.432 47.7904 278.39 47.7856C278.326 47.7773 278.264 47.7686 278.2 47.7634C278.162 47.7586 278.123 47.7551 278.086 47.7525H278.079C278.026 47.7477 277.974 47.7451 277.92 47.7429C277.848 47.739 277.775 47.7377 277.701 47.7377H126.619C123.9 47.7377 121.696 49.9425 121.696 52.6614V138.576H282.625V52.6614C282.625 50.2826 280.937 48.2979 278.693 47.8384ZM276.242 129.994C276.242 130.734 275.643 131.333 274.903 131.333H129.418C128.678 131.333 128.079 130.734 128.079 129.994V55.4601C128.079 54.7202 128.678 54.1211 129.418 54.1211H274.903C275.643 54.1211 276.242 54.7202 276.242 55.4601V129.994Z" fill="#3B3A39"/>
<path d="M276.242 55.46V129.994C276.242 130.734 275.643 131.333 274.902 131.333H129.418C128.678 131.333 128.078 130.734 128.078 129.994V55.46C128.078 54.7197 128.678 54.1211 129.418 54.1211H274.902C275.643 54.1211 276.242 54.7197 276.242 55.46Z" fill="#E4E1CC"/>
<path d="M276.242 55.46V62.494H128.078V55.46C128.078 54.7197 128.678 54.1211 129.418 54.1211H274.902C275.643 54.1211 276.242 54.7197 276.242 55.46Z" fill="#FEF5BD"/>
<path d="M264.766 58.1951C264.766 58.8234 264.257 59.3327 263.629 59.3327C263 59.3327 262.49 58.8234 262.49 58.1951C262.49 57.5669 263 57.0576 263.629 57.0576C264.257 57.0576 264.766 57.5669 264.766 58.1951Z" fill="#DF955D"/>
<path d="M268.453 58.1951C268.453 58.8234 267.944 59.3327 267.316 59.3327C266.687 59.3327 266.178 58.8234 266.178 58.1951C266.178 57.5669 266.687 57.0576 267.316 57.0576C267.944 57.0576 268.453 57.5669 268.453 58.1951Z" fill="#F3DD53"/>
<path d="M257.824 59.3985H142.077C141.493 59.3985 141.016 58.9211 141.016 58.3373V58.053C141.016 57.4692 141.493 56.9918 142.077 56.9918H257.824C258.408 56.9918 258.885 57.4692 258.885 58.053V58.3373C258.885 58.9211 258.408 59.3985 257.824 59.3985Z" fill="#EBE7D0"/>
<path d="M133.428 58.1951V59.3091C133.428 59.4665 133.257 59.5651 133.121 59.4861L132.156 58.9294L131.191 58.3722C131.055 58.2937 131.055 58.0966 131.191 58.0181L132.156 57.4609L133.121 56.9041C133.257 56.8252 133.428 56.9238 133.428 57.0807V58.1951Z" fill="black"/>
<path d="M135.123 58.1951V59.3091C135.123 59.4665 135.293 59.5651 135.429 59.4861L136.394 58.9294L137.359 58.3722C137.495 58.2937 137.495 58.0966 137.359 58.0181L136.394 57.4609L135.429 56.9041C135.293 56.8252 135.123 56.9238 135.123 57.0807V58.1951Z" fill="black"/>
<path d="M269.986 59.1452L269.936 59.0946C269.824 58.9834 269.824 58.8021 269.936 58.6909L271.464 57.1627C271.575 57.0511 271.756 57.0511 271.867 57.1627L271.918 57.2137C272.03 57.3253 272.03 57.5058 271.918 57.6174L270.39 59.1452C270.279 59.2568 270.098 59.2568 269.986 59.1452Z" fill="#3B3A39"/>
<path d="M271.867 59.1452L271.918 59.0946C272.029 58.9834 272.029 58.8021 271.918 58.6909L270.39 57.1627C270.278 57.0511 270.098 57.0511 269.986 57.1627L269.935 57.2137C269.824 57.3253 269.824 57.5058 269.935 57.6174L271.463 59.1452C271.575 59.2568 271.755 59.2568 271.867 59.1452Z" fill="#3B3A39"/>
<path d="M256.297 128.334H147.626C146.08 128.334 144.826 127.081 144.826 125.534V66.9923C144.826 65.4458 146.08 64.1919 147.626 64.1919H256.297C257.843 64.1919 259.096 65.4458 259.096 66.9923V125.534C259.096 127.081 257.843 128.334 256.297 128.334Z" fill="#FEF5BD"/>
<path d="M144.826 118.373H259.096V127.742C259.096 128.068 258.831 128.334 258.503 128.334H145.42C145.092 128.334 144.826 128.068 144.826 127.742V118.373Z" fill="#3B3A39"/>
<path d="M247.873 122.065V121.221H248.929V120.469H247.497C247.289 120.469 247.121 120.638 247.121 120.845V122.065H247.873Z" fill="#FEF5BD"/>
<path d="M247.873 123.568H247.121V124.853C247.121 125.06 247.289 125.229 247.497 125.229H248.929V124.477H247.873V123.568Z" fill="#FEF5BD"/>
<path d="M251.129 122.065H251.88V120.845C251.88 120.638 251.712 120.469 251.504 120.469H250.127V121.221H251.129V122.065Z" fill="#FEF5BD"/>
<path d="M251.129 123.568V124.477H250.127V125.229H251.504C251.712 125.229 251.88 125.06 251.88 124.853V123.568H251.129Z" fill="#FEF5BD"/>
<path d="M151.483 123.01V120.638L153.538 121.824L155.594 123.01L153.538 124.197L151.483 125.384V123.01Z" fill="#FEF5BD"/>
<path d="M162.877 125.196H162.337C162.135 125.196 161.97 125.032 161.97 124.83V121.243C161.97 121.041 162.135 120.876 162.337 120.876H162.877C163.079 120.876 163.244 121.041 163.244 121.243V124.83C163.244 125.032 163.079 125.196 162.877 125.196Z" fill="#FEF5BD"/>
<path d="M165.538 125.196H164.999C164.797 125.196 164.631 125.032 164.631 124.83V121.243C164.631 121.041 164.797 120.876 164.999 120.876H165.538C165.74 120.876 165.905 121.041 165.905 121.243V124.83C165.905 125.032 165.74 125.196 165.538 125.196Z" fill="#FEF5BD"/>
<path d="M259.096 118.373H144.826V116.5H259.096V118.373Z" fill="#E4E1CC"/>
<path d="M240.824 109.212H242.113V112.037H243.84V113.037H240.824V109.212Z" fill="#3B3A39"/>
<path d="M244.194 109.212H245.483V113.036H244.194V109.212Z" fill="#3B3A39"/>
<path d="M250.192 109.212L248.575 113.037H247.308L245.691 109.212H247.078L247.991 111.447L248.925 109.212H250.192Z" fill="#3B3A39"/>
<path d="M253.496 112.063V113.036H250.317V109.212H253.425V110.184H251.584V110.632H253.201V111.561H251.584V112.063H253.496Z" fill="#3B3A39"/>
<path d="M152.12 109.984C152.12 110.747 151.502 111.365 150.739 111.365C149.976 111.365 149.358 110.747 149.358 109.984C149.358 109.221 149.976 108.603 150.739 108.603C151.502 108.603 152.12 109.221 152.12 109.984Z" fill="#DF955D"/>
<path d="M153.321 113.479H148.158C148.158 113.479 148.744 111.838 150.7 111.838C150.714 111.838 150.727 111.84 150.739 111.84C150.752 111.84 150.764 111.838 150.778 111.838C152.734 111.838 153.321 113.479 153.321 113.479Z" fill="#DF955D"/>
<path d="M162.879 112.583H161.166L161.728 111.934C162.027 111.635 162.244 111.397 162.378 111.218C162.513 111.04 162.612 110.87 162.676 110.707C162.739 110.545 162.771 110.378 162.771 110.207C162.771 109.8 162.644 109.488 162.39 109.271C162.136 109.054 161.774 108.945 161.304 108.945C161.011 108.945 160.746 109.009 160.509 109.137C160.271 109.264 160.086 109.441 159.953 109.667C159.819 109.893 159.752 110.14 159.752 110.407H160.763C160.763 110.212 160.811 110.049 160.906 109.918C161.002 109.788 161.126 109.722 161.28 109.722C161.435 109.722 161.554 109.771 161.635 109.869C161.717 109.967 161.758 110.109 161.758 110.296C161.758 110.528 161.586 110.839 161.241 111.232L159.842 112.702V113.36H162.879V112.583Z" fill="#3B3A39"/>
<path d="M162.879 112.583H161.166L161.728 111.934C162.027 111.635 162.244 111.397 162.378 111.218C162.513 111.04 162.612 110.87 162.676 110.707C162.739 110.545 162.771 110.378 162.771 110.207C162.771 109.8 162.644 109.488 162.39 109.271C162.136 109.054 161.774 108.945 161.304 108.945C161.011 108.945 160.746 109.009 160.509 109.137C160.271 109.264 160.086 109.441 159.953 109.667C159.819 109.893 159.752 110.14 159.752 110.407H160.763C160.763 110.212 160.811 110.049 160.906 109.918C161.002 109.788 161.126 109.722 161.28 109.722C161.435 109.722 161.554 109.771 161.635 109.869C161.717 109.967 161.758 110.109 161.758 110.296C161.758 110.528 161.586 110.839 161.241 111.232L159.842 112.702V113.36H162.879V112.583Z" stroke="#3B3A39" stroke-width="0.81"/>
<path d="M159.322 109.008H156.187V109.785H158.261L156.632 113.36H157.696L159.322 109.546V109.008Z" fill="#3B3A39"/>
<path d="M159.322 109.008H156.187V109.785H158.261L156.632 113.36H157.696L159.322 109.546V109.008Z" stroke="#3B3A39" stroke-width="0.81"/>
<path d="M224.527 118.374H144.827V116.501H224.527V118.374Z" fill="#DF955D"/>
<path d="M238.853 111.093C238.853 112.044 238.081 112.815 237.13 112.815C236.178 112.815 235.407 112.044 235.407 111.093C235.407 110.142 236.178 109.371 237.13 109.371C238.081 109.371 238.853 110.142 238.853 111.093Z" fill="#DF955D"/>
<path d="M152.587 90.4264H172.919" stroke="#E4E1CC" stroke-width="2.69635" stroke-linecap="round" stroke-linejoin="round"/>
<path d="M152.587 96.4471H171.096" stroke="#E4E1CC" stroke-width="2.57261" stroke-linecap="round" stroke-linejoin="round"/>
<path d="M152.587 102.204H172.023" stroke="#E4E1CC" stroke-width="2.63623" stroke-linecap="round" stroke-linejoin="round"/>
<path d="M229.748 90.4264H249.142" stroke="#E4E1CC" stroke-width="2.63345" stroke-linecap="round" stroke-linejoin="round"/>
<path d="M229.748 96.4471H248.256" stroke="#E4E1CC" stroke-width="2.57261" stroke-linecap="round" stroke-linejoin="round"/>
<path d="M229.748 102.204H250.12" stroke="#E4E1CC" stroke-width="2.69907" stroke-linecap="round" stroke-linejoin="round"/>
<path d="M176.411 93.8408C177.358 96.4333 180.226 97.7681 182.819 96.8213C185.412 95.875 186.746 93.0061 185.8 90.4132C184.853 87.8208 181.984 86.4864 179.391 87.4328C176.799 88.3792 175.465 91.2484 176.411 93.8408Z" fill="#FF8E3A"/>
<path d="M189.372 72.3693C190.386 75.1474 193.46 76.5771 196.238 75.5632C199.015 74.5486 200.446 71.4748 199.431 68.6972C198.417 65.9191 195.343 64.489 192.565 65.5032C189.787 66.5175 188.358 69.5912 189.372 72.3693Z" fill="#FF8E3A"/>
<path d="M181.963 97.1312C182.889 96.817 183.793 96.3482 184.585 95.7775C184.981 95.4931 185.351 95.1846 185.691 94.8626L185.937 94.622L186.141 94.4102C186.211 94.3374 186.268 94.2739 186.331 94.2054C186.391 94.1392 186.457 94.0685 186.511 94.0059C186.972 93.4859 187.355 93.0067 187.716 92.5371C188.434 91.6012 189.059 90.7044 189.665 89.8077C190.265 88.9109 190.83 88.0182 191.385 87.1269C191.939 86.2359 192.48 85.3465 193.001 84.451C193.525 83.5566 194.041 82.6628 194.546 81.7659C195.048 80.8669 195.543 79.9673 196.034 79.0658C196.518 78.1613 196.998 77.2565 197.469 76.3458L198.17 74.9753L198.513 74.2838C198.63 74.0504 198.74 73.8264 198.86 73.5765L189.256 68.7423L186.357 73.9779C185.909 74.8588 185.458 75.7368 185.002 76.6097C184.55 77.4847 184.099 78.357 183.64 79.2212C183.179 80.0836 182.724 80.9444 182.261 81.792C181.799 82.6386 181.329 83.4738 180.858 84.2825C180.392 85.0917 179.917 85.8825 179.458 86.5812C179.229 86.9276 179.003 87.2513 178.815 87.5024L178.689 87.6671L178.637 87.7334C178.627 87.7484 178.626 87.7524 178.621 87.7634C178.604 87.7966 178.594 87.8199 178.589 87.8384C178.577 87.8751 178.588 87.8963 178.568 87.9291C178.551 87.962 178.492 88.0024 178.37 88.038L181.963 97.1312Z" fill="#FF8E3A"/>
<path d="M191.412 87.222C191.462 87.2036 191.508 87.1698 191.541 87.122C193.627 84.138 197.101 78.1872 197.136 78.1273C197.212 77.9971 197.168 77.8298 197.038 77.7541C196.908 77.6783 196.741 77.722 196.665 77.8522C196.631 77.9116 193.168 83.8443 191.095 86.8098C191.008 86.9333 191.038 87.1038 191.162 87.1899C191.238 87.2425 191.331 87.2513 191.412 87.222Z" fill="#C17033"/>
<path d="M195.576 80.6361C195.588 80.6319 195.6 80.6264 195.612 80.62L197.481 79.6119C197.614 79.5406 197.663 79.3754 197.592 79.2429C197.521 79.1104 197.355 79.0599 197.223 79.1325L195.354 80.1402C195.221 80.2115 195.172 80.3768 195.243 80.5092C195.308 80.6299 195.451 80.6819 195.576 80.6361Z" fill="#C17033"/>
<path d="M185.021 95.4166C184.308 96.0829 183.47 96.6623 182.592 97.091C181.713 97.5242 180.805 97.8052 179.938 97.9709C179.07 98.1355 178.243 98.1868 177.467 98.1736C176.691 98.1602 175.965 98.0744 175.28 97.9565C173.908 97.7161 172.691 97.3368 171.551 96.9062C170.411 96.4758 169.358 95.9724 168.348 95.4451C166.331 94.3877 164.503 93.1885 162.758 91.9249C161.02 90.651 159.373 89.3127 157.799 87.8726C160.264 86.9535 161.971 85.0163 162.494 82.6145C164.111 83.6332 165.333 84.3471 166.997 85.23C168.656 86.1176 170.339 86.9112 171.982 87.5399C172.802 87.8526 173.616 88.1107 174.389 88.3132C175.161 88.5119 175.902 88.6397 176.528 88.669C177.153 88.6999 177.648 88.6262 177.879 88.5245C177.995 88.4739 178.048 88.4265 178.061 88.3916C178.077 88.3565 178.063 88.3371 178.069 88.2992C178.073 88.28 178.08 88.2557 178.093 88.2205C178.096 88.2091 178.096 88.2049 178.105 88.1886L178.409 88.1101L185.021 95.4166Z" fill="#FF8E3A"/>
<path d="M176.669 94.5284C177.936 96.9805 180.95 97.942 183.402 96.6751C185.854 95.4087 186.815 92.3942 185.549 89.9417C184.282 87.4897 181.268 86.5286 178.815 87.7951C176.363 89.0615 175.403 92.0763 176.669 94.5284Z" fill="#FF8E3A"/>
<path d="M156.911 86.9015C157.802 88.6258 159.921 89.3016 161.645 88.411C163.369 87.5202 164.045 85.4002 163.155 83.6763C162.264 81.9521 160.145 81.2768 158.421 82.1672C156.697 83.0577 156.021 85.1776 156.911 86.9015Z" fill="#FF8E3A"/>
<path d="M160.659 90.2118C160.537 90.2116 160.425 90.1303 160.392 90.0065C160.352 89.8583 160.44 89.7064 160.588 89.6663C164.5 88.6161 164.519 84.3573 164.518 84.3148C164.517 84.1614 164.641 84.0364 164.794 84.0353C164.795 84.0354 164.797 84.0358 164.797 84.0358C164.949 84.0364 165.072 84.1587 165.073 84.311C165.073 84.3583 165.052 89.0421 160.732 90.2021C160.708 90.2088 160.683 90.212 160.659 90.2118Z" fill="#C17033"/>
<path d="M162.5 89.3431C162.438 89.3428 162.376 89.3221 162.324 89.28L159.771 87.1748C159.653 87.0774 159.636 86.9024 159.733 86.7846C159.831 86.6657 160.006 86.6495 160.124 86.7469L162.677 88.8513C162.796 88.9491 162.813 89.1236 162.715 89.2419C162.66 89.3087 162.58 89.3432 162.5 89.3431Z" fill="#C17033"/>
<path d="M163.231 85.6738C163.231 85.9395 163.014 86.1547 162.748 86.154C162.482 86.1528 162.268 85.9374 162.269 85.6717C162.27 85.406 162.485 85.191 162.751 85.1914C163.016 85.1921 163.232 85.4081 163.231 85.6738Z" fill="#C17033"/>
<path d="M180.188 91.1398C180.104 91.1397 180.021 91.1011 179.966 91.028C179.956 91.0142 178.901 89.6078 177.979 88.9449C177.854 88.8552 177.826 88.6823 177.915 88.5577C178.004 88.4332 178.178 88.4046 178.303 88.4944C179.296 89.2075 180.367 90.6358 180.411 90.6963C180.503 90.8193 180.478 90.9935 180.355 91.0852C180.306 91.1225 180.247 91.1399 180.188 91.1398Z" fill="#C17033"/>
<path d="M178.3 91.4126C178.28 91.4126 178.26 91.4108 178.24 91.4063C178.09 91.3727 177.997 91.224 178.03 91.0746C178.033 91.0628 178.292 89.881 178.04 88.9899C177.998 88.8426 178.084 88.6892 178.231 88.6474C178.378 88.6055 178.532 88.692 178.574 88.8392C178.865 89.8675 178.584 91.1422 178.571 91.1959C178.543 91.3252 178.427 91.4129 178.3 91.4126Z" fill="#C17033"/>
<path d="M161.976 83.0123C162.672 84.8239 161.767 86.8572 159.956 87.5533C158.144 88.2493 156.112 87.3447 155.416 85.5331C154.72 83.722 155.624 81.6893 157.435 80.9933C159.247 80.2972 161.28 81.2012 161.976 83.0123Z" fill="#FF8E3A"/>
<path d="M162.174 81.5249C162.174 81.5249 163.04 85.705 160.415 87.5221C158.294 88.9884 155.227 87.5893 154.125 86.9978C153.861 86.8557 153.711 86.7612 153.711 86.7612C153.711 86.7612 153.544 86.846 153.283 86.9421C152.67 87.1682 151.537 87.4599 150.825 86.8727C149.81 86.0372 151.731 84.4621 151.731 84.4621C151.731 84.4621 150.215 83.8873 150.216 83.0457C150.218 82.2182 151.673 81.4865 151.673 81.4865C151.673 81.4865 149.637 81.054 149.828 79.9213C150.115 78.2178 152.388 79.0973 152.555 79.1301C152.402 79.0489 149.45 77.6746 150.455 76.8373C151.332 76.1063 153.427 76.6049 154.95 77.3103C155.192 77.4215 155.328 77.4875 155.328 77.4875C155.328 77.4875 155.375 77.4123 155.46 77.2921C155.866 76.7173 157.165 75.0966 158.574 75.5777C160.278 76.1586 162.174 81.5249 162.174 81.5249Z" fill="#EAAB7A"/>
<path d="M160.079 85.1006C160.021 85.1622 159.933 85.1934 159.844 85.1728C159.712 85.1429 159.629 85.0103 159.659 84.8776C159.822 84.1633 159.718 83.5394 159.348 83.0219C158.4 81.6963 156.039 81.4344 156.015 81.4319C155.88 81.418 155.782 81.2968 155.796 81.1616C155.811 81.0262 155.931 80.9275 156.067 80.9418C156.172 80.953 158.673 81.2313 159.748 82.7354C160.204 83.3722 160.335 84.1298 160.139 84.9877C160.129 85.0316 160.108 85.0701 160.079 85.1006Z" fill="#D99662"/>
<path d="M155.891 80.205C155.994 80.4777 155.965 80.7374 155.807 80.9556C155.775 81.002 155.734 81.0449 155.687 81.089C155.588 81.18 155.457 81.2643 155.309 81.3414C155.45 81.3727 155.582 81.4129 155.696 81.4683C155.809 81.5215 155.905 81.5879 155.977 81.6703C156.079 81.7887 156.181 81.991 156.098 82.289C155.917 82.9196 155.143 83.4469 154.48 83.7952C155.088 83.897 155.673 84.1285 155.97 84.4723C156.16 84.6955 156.224 84.9493 156.15 85.2074C156.099 85.3857 155.97 85.5756 155.792 85.7643C155.352 86.2368 154.622 86.7059 154.125 86.9972C153.86 86.8561 153.711 86.7599 153.711 86.7599C153.711 86.7599 153.543 86.8464 153.281 86.9427C153.304 86.9027 153.339 86.8701 153.382 86.8483C154.195 86.4221 155.537 85.5638 155.677 85.0724C155.694 85.0074 155.702 84.9177 155.596 84.7927C155.27 84.4139 154.22 84.1502 153.437 84.2488C153.312 84.2656 153.197 84.1865 153.168 84.064C153.137 83.9406 153.205 83.8165 153.322 83.7744C153.894 83.5667 155.42 82.8689 155.624 82.1536C155.653 82.0499 155.621 82.0123 155.603 81.9931C155.526 81.903 155.354 81.8443 155.132 81.8085C154.682 81.736 154.031 81.7592 153.575 81.8205C153.522 81.8273 153.472 81.8178 153.429 81.7934C153.36 81.7591 153.309 81.692 153.298 81.6091C153.281 81.4744 153.374 81.3502 153.511 81.3317C153.597 81.32 153.778 81.2981 154.007 81.2834C154.41 81.1803 154.791 81.0583 155.061 80.9219C155.223 80.8411 155.344 80.7547 155.409 80.6658C155.448 80.6114 155.486 80.5289 155.43 80.3765C155.359 80.1865 155.167 79.9725 154.915 79.7744C154.835 79.7129 154.805 79.608 154.835 79.5107C154.836 79.5091 154.837 79.5057 154.837 79.5028C154.888 79.341 155.084 79.279 155.217 79.3841C155.532 79.6324 155.782 79.9168 155.891 80.205Z" fill="#D99662"/>
<path d="M152.553 76.5493C153.043 76.6424 153.476 76.7373 153.934 76.9267C154.38 77.1119 154.647 77.1907 154.95 77.3102C154.944 77.3405 154.956 77.2781 154.95 77.3102L143.329 60.2618C143.152 59.9996 142.756 60.2526 142.919 60.5241L152.553 76.5493C152.555 76.5498 152.55 76.5489 152.553 76.5493Z" fill="#3B3A39"/>
<path d="M160.394 85.4836C159.242 87.0603 158.531 86.4941 158.531 86.4941L156.064 82.39C156.077 82.3578 156.088 82.3227 156.098 82.2888C156.181 81.9912 156.079 81.7891 155.978 81.6706C155.905 81.5881 155.809 81.5215 155.696 81.4685C155.623 81.4328 155.542 81.404 155.457 81.3796L155.404 81.291C155.512 81.2273 155.61 81.1599 155.688 81.0893C155.734 81.0457 155.775 81.002 155.808 80.9554C155.912 80.811 155.961 80.6476 155.949 80.4751C156.203 80.5816 156.473 80.5961 156.756 80.5195C156.833 80.4994 156.906 80.4724 156.981 80.4413L160.394 85.4836Z" fill="#3B3A39"/>
<path d="M159.084 78.098C159.056 78.1538 158.607 79.0035 157.965 79.6907C157.609 80.0712 157.193 80.4024 156.757 80.5203C156.397 80.6166 156.056 80.5663 155.744 80.3697C154.64 79.6708 154.772 78.1534 154.95 77.3101C155.192 77.4213 155.329 77.4872 155.329 77.4872C155.329 77.4872 155.375 77.4125 155.461 77.2919C155.298 77.9929 155.112 79.3876 156.007 79.9529C156.2 80.0752 156.403 80.1051 156.628 80.0441C157.472 79.818 158.372 78.3981 158.648 77.8705C158.71 77.7499 158.859 77.7019 158.98 77.7663C159.1 77.8284 159.146 77.9774 159.084 78.098Z" fill="#D99662"/>
<mask id="mask1_1188_823" style="mask-type:alpha" maskUnits="userSpaceOnUse" x="128" y="131" width="141" height="37">
<path d="M268.13 131.672V167.324H128.838V131.672H268.13Z" fill="#2B2B2B"/>
</mask>
<g mask="url(#mask1_1188_823)">
<path d="M197.522 155.756L201.489 132.35L201.814 130.437L190.396 126.408L189.745 126.178L187.027 125.219C187.027 125.219 186.809 126.22 186.471 127.941C186.431 128.149 186.388 128.367 186.344 128.596C185.273 134.131 183.264 145.539 182.718 155.756H197.522Z" fill="#3B3A39"/>
<path d="M220.622 117.747C220.622 117.747 221.481 125.898 219.627 130.436C217.772 134.975 193.764 132.639 187.646 128.555C185.136 126.879 190.481 111.42 190.481 111.42L220.622 117.747Z" fill="#3B3A39"/>
<path d="M217.638 155.756C218.588 147.069 219.685 135.445 220.306 128.71C220.327 128.498 220.344 128.295 220.363 128.094C220.637 125.122 220.805 123.25 220.805 123.25C219.332 122.637 216.66 123.059 213.818 123.865C213.612 123.923 213.406 123.982 213.2 124.045C208.149 125.558 202.795 128.112 202.795 128.112V155.756H217.638Z" fill="#3B3A39"/>
</g>
<path d="M209.812 38.6202C208.046 37.6449 202.692 37.4678 202.692 37.4678C202.692 37.4678 201.656 35.2308 200.625 34.6428C198.28 33.3062 198.214 36.351 198.214 36.351C198.214 36.351 195.811 33.4394 193.902 34.4526C191.993 35.4662 194.709 38.1362 194.709 38.1362C194.709 38.1362 191.716 37.7946 192.22 40.2891C192.724 42.7836 195.646 43.6795 195.646 43.6795C195.646 43.6795 194.871 45.1638 195.469 47.4318C196.067 49.6995 197.06 49.7407 197.06 49.7407L209.395 49.9784C209.395 49.9784 211.913 49.8025 212.348 46.5829C212.783 43.3624 210.502 42.2023 210.502 42.2023C210.502 42.2023 211.756 39.6942 209.812 38.6202Z" fill="#3B3A39"/>
<path d="M197.659 50.1114C197.659 50.1114 196.244 48.6575 195.613 50.2544C194.981 51.8514 195.768 54.9394 197.723 54.2884L197.659 50.1114Z" fill="#D99662"/>
<path d="M196.644 55.6282C196.644 55.6282 196.969 60.39 201.921 60.0331C206.843 59.6796 209.926 55.5804 210.089 55.3894C210.091 55.3862 210.093 55.3843 210.093 55.3843L210.078 54.3801L209.994 49.1666L209.95 46.3799C209.95 46.3799 210.23 41.3376 205.415 40.7579C201.898 40.3341 198.683 41.1378 197.167 43.0632C197.119 43.1256 197.071 43.1888 197.027 43.254C196.554 43.9264 196.28 44.7258 196.255 45.647L196.45 50.6439L196.498 51.8687L196.644 55.6282Z" fill="#EAAB7A"/>
<path d="M201.749 55.896C202.547 55.9119 203.105 55.3712 203.133 55.343C203.219 55.2579 203.22 55.1188 203.135 55.0325C203.049 54.9467 202.911 54.9459 202.825 55.0306C202.795 55.0598 202.149 55.6753 201.32 55.3735C201.206 55.3326 201.08 55.3908 201.039 55.5051C200.997 55.619 201.056 55.7447 201.169 55.7862C201.373 55.8602 201.567 55.8925 201.749 55.896Z" fill="#D99662"/>
<path d="M197.027 43.2535C197.785 42.9238 198.364 43.1408 199.611 43.5878C201.415 44.2344 203.323 43.4062 204.991 42.4015C206.659 41.3969 207.782 42.554 207.249 43.4024C206.717 44.2504 206.826 44.8992 207.551 45.8826C208.276 46.8652 206.42 47.4756 207.521 48.2099C207.984 48.5189 207.993 49.0287 207.849 49.5148C207.691 50.0447 208.181 50.541 208.717 50.4022C209.269 50.2197 209.994 49.1665 209.994 49.1665L209.949 46.3798C209.949 46.3798 210.23 41.3371 205.415 40.7574C201.898 40.3336 198.683 41.1377 197.167 43.0631C197.118 43.1256 197.071 43.1883 197.027 43.2535Z" fill="#3B3A39"/>
<path d="M202.952 50.8054C202.976 51.152 203.71 51.3831 204.591 51.3215C205.471 51.26 206.165 50.9292 206.141 50.5825C206.117 50.2359 205.383 50.0048 204.503 50.0663C203.622 50.1278 202.928 50.4587 202.952 50.8054Z" fill="#D99662"/>
<path d="M196.497 51.8683C196.621 51.8719 196.75 51.869 196.883 51.8597C197.762 51.7983 198.457 51.4678 198.433 51.1212C198.409 50.7745 197.675 50.543 196.795 50.6045C196.676 50.6128 196.56 50.6257 196.45 50.6435L196.497 51.8683Z" fill="#D99662"/>
<path d="M208.403 53.5657C208.429 53.6167 209.157 55.0265 210.088 55.3894C210.091 55.3861 210.092 55.3843 210.092 55.3843L210.076 54.3797C210.076 54.3797 209.285 54.3008 208.403 53.5657Z" fill="#3B3A39"/>
<path d="M209.044 50.198C209.044 50.198 210.769 47.5079 212.304 49.4198C213.569 50.9952 211.697 55.4622 209.319 54.1429L209.044 50.198Z" fill="#EAAB7A"/>
<path d="M209.526 53.3544C209.625 53.3475 209.704 53.268 209.708 53.1668C209.785 51.2165 211.359 50.4287 211.425 50.396C211.523 50.3486 211.564 50.2308 211.516 50.1336C211.469 50.0359 211.352 49.9951 211.254 50.0426C211.179 50.0789 209.402 50.9601 209.316 53.1514C209.311 53.2597 209.396 53.3508 209.504 53.3555C209.512 53.3554 209.519 53.3549 209.526 53.3544Z" fill="#3B3A39"/>
<path d="M211.271 52.0397C211.328 52.0358 211.382 52.007 211.418 51.9565C211.48 51.8682 211.459 51.7455 211.37 51.6836C211.287 51.6251 210.546 51.1209 209.969 51.3125C209.866 51.3468 209.81 51.4578 209.844 51.5608C209.879 51.6637 209.99 51.7197 210.092 51.6854C210.425 51.5752 210.964 51.8784 211.144 52.0044C211.183 52.0315 211.227 52.0428 211.271 52.0397Z" fill="#3B3A39"/>
<path d="M200.75 51.4501C200.858 51.4425 200.939 51.3494 200.931 51.2411C200.924 51.1328 200.83 51.0515 200.722 51.0591C200.002 51.1094 199.637 50.752 199.515 50.5954C200.183 48.9302 200.846 47.2528 200.853 47.2357C200.893 47.135 200.843 47.0204 200.742 46.9803C200.642 46.9406 200.528 46.9905 200.488 47.0916C200.481 47.1087 199.793 48.8508 199.111 50.5466C199.089 50.6015 199.093 50.6633 199.122 50.715C199.14 50.7483 199.589 51.5312 200.75 51.4501Z" fill="#3B3A39"/>
<path d="M203.78 54.0863C203.78 54.0863 200.751 54.576 199.265 54.8762C199.265 54.8762 200.048 57.2347 202.199 56.3598C203.851 55.6887 203.78 54.0863 203.78 54.0863Z" fill="#FEF5BD"/>
<path d="M202.128 48.9457C202.162 49.4215 202.404 49.7926 202.67 49.774C202.937 49.7554 203.126 49.3541 203.093 48.8783C203.06 48.402 202.817 48.0313 202.55 48.0499C202.284 48.0685 202.095 48.4694 202.128 48.9457Z" fill="#3B3A39"/>
<path d="M197.344 49.2799C197.377 49.7557 197.62 50.1269 197.886 50.1083C198.153 50.0896 198.342 49.6883 198.309 49.2125C198.275 48.7362 198.033 48.3655 197.766 48.3842C197.499 48.4028 197.311 48.8036 197.344 49.2799Z" fill="#3B3A39"/>
<path d="M201.729 46.8992C201.729 46.8992 203.914 48.3014 205.083 47.2285C206.251 46.155 203.294 45.2819 202.352 45.4295C201.41 45.5766 201.087 46.5914 201.729 46.8992Z" fill="#3B3A39"/>
<path d="M199.467 47.0566C199.467 47.0566 197.498 48.7494 196.191 47.8497C194.885 46.9496 197.692 45.6732 198.645 45.6882C199.599 45.7027 200.06 46.6625 199.467 47.0566Z" fill="#3B3A39"/>
<path d="M228.775 94.5901C229.723 94.8223 230.737 94.9173 231.712 94.8605C232.691 94.8079 233.621 94.6083 234.458 94.3282C235.295 94.0468 236.042 93.6869 236.711 93.2958C237.381 92.9037 237.972 92.4738 238.512 92.0348C239.59 91.1538 240.466 90.2271 241.25 89.2931C242.033 88.3601 242.705 87.4047 243.327 86.4507C244.567 84.5414 245.574 82.601 246.477 80.6446C247.369 78.683 248.15 76.709 248.817 74.6828C246.218 75.0882 243.782 74.2354 242.149 72.3978C241.238 74.0774 240.522 75.2983 239.504 76.8831C238.491 78.4694 237.413 79.9847 236.288 81.3377C235.726 82.0121 235.142 82.6355 234.567 83.1904C233.992 83.7419 233.408 84.2165 232.877 84.5483C232.347 84.8814 231.879 85.0592 231.628 85.0836C231.502 85.0963 231.433 85.0809 231.404 85.057C231.373 85.0341 231.375 85.0104 231.351 84.9803C231.339 84.9655 231.321 84.9478 231.293 84.923C231.284 84.9151 231.282 84.9116 231.266 84.9017L230.963 84.9817L228.775 94.5901Z" fill="#FF8E3A"/>
<path d="M235.623 89.726C235.72 92.4842 233.561 94.7986 230.803 94.895C228.045 94.9914 225.731 92.8334 225.635 90.0752C225.539 87.317 227.697 85.0026 230.455 84.9062C233.213 84.8098 235.527 86.9678 235.623 89.726Z" fill="#FF8E3A"/>
<path d="M249.116 73.4019C249.184 75.3409 247.666 76.9685 245.727 77.0363C243.787 77.1041 242.161 75.5865 242.093 73.6475C242.025 71.708 243.543 70.0809 245.482 70.0131C247.421 69.9453 249.048 71.4625 249.116 73.4019Z" fill="#FF8E3A"/>
<path d="M247.469 78.1235C247.576 78.0635 247.633 77.9376 247.601 77.8135C247.563 77.6647 247.412 77.5753 247.263 77.6128C243.339 78.613 241.238 74.9092 241.217 74.872C241.143 74.7376 240.974 74.6889 240.84 74.7634C240.839 74.7639 240.839 74.7644 240.838 74.7648C240.705 74.8397 240.657 75.0076 240.731 75.1407C240.754 75.1822 243.065 79.2551 247.4 78.1507C247.424 78.1447 247.448 78.1351 247.469 78.1235Z" fill="#C17033"/>
<path d="M245.439 78.2675C245.493 78.2368 245.537 78.1886 245.561 78.1262L246.757 75.0407C246.812 74.8978 246.741 74.7371 246.598 74.6819C246.455 74.6263 246.294 74.6973 246.239 74.8402L245.043 77.9257C244.988 78.0686 245.059 78.2293 245.202 78.2849C245.283 78.3161 245.369 78.307 245.439 78.2675Z" fill="#C17033"/>
<path d="M243.005 75.426C243.135 75.6575 243.429 75.7388 243.66 75.6082C243.891 75.4775 243.973 75.1841 243.842 74.9526C243.712 74.7212 243.418 74.6398 243.187 74.7705C242.955 74.9012 242.874 75.1946 243.005 75.426Z" fill="#C17033"/>
<path d="M230.896 88.4954C230.969 88.454 231.023 88.3797 231.035 88.2894C231.037 88.2719 231.268 86.5297 231.748 85.4999C231.813 85.3607 231.753 85.1957 231.614 85.1307C231.475 85.0662 231.309 85.1265 231.245 85.2653C230.728 86.3736 230.494 88.143 230.484 88.2179C230.464 88.37 230.571 88.5089 230.724 88.5289C230.785 88.5368 230.845 88.5238 230.896 88.4954Z" fill="#C17033"/>
<path d="M232.675 87.8085C232.692 87.7987 232.709 87.7868 232.724 87.7728C232.838 87.6706 232.847 87.4949 232.745 87.3811C232.737 87.3718 231.933 86.4689 231.716 85.5686C231.68 85.4193 231.531 85.3277 231.381 85.3635C231.233 85.3992 231.141 85.549 231.177 85.6983C231.427 86.737 232.296 87.7114 232.333 87.7524C232.421 87.851 232.564 87.8708 232.675 87.8085Z" fill="#C17033"/>
<path d="M249.725 74.6946C249.151 76.548 247.182 77.5855 245.328 77.0113C243.475 76.4373 242.438 74.4688 243.012 72.6154C243.586 70.7617 245.554 69.7245 247.407 70.2985C249.261 70.8727 250.299 72.8409 249.725 74.6946Z" fill="#FF8E3A"/>
<path d="M243.864 72.6565C243.864 72.6565 245.599 75.9887 248.4 75.7665C250.662 75.5865 251.975 72.9255 252.397 71.9087C252.498 71.6656 252.547 71.5176 252.547 71.5176C252.547 71.5176 252.708 71.4821 252.94 71.402C253.484 71.2152 254.418 70.7848 254.577 69.9883C254.805 68.8533 252.618 68.8479 252.618 68.8479C252.618 68.8479 253.332 67.6126 252.863 67.0396C252.402 66.4763 251.001 66.787 251.001 66.787C251.001 66.787 252.15 65.359 251.389 64.6926C250.245 63.6915 249.185 65.5556 249.089 65.6703C249.149 65.5299 251.68 59.5916 250.529 59.5801C249.524 59.5697 247.089 64.4342 246.443 65.7632C246.341 65.9734 246.284 66.094 246.284 66.094C246.284 66.094 246.211 66.0691 246.085 66.0343C245.489 65.8683 243.701 65.4858 243.008 66.5985C242.17 67.9422 243.864 72.6565 243.864 72.6565Z" fill="#EAAB7A"/>
<path d="M250.373 69.9224C250.015 70.3309 249.745 70.8133 249.734 71.214C249.728 71.4722 249.826 71.6806 250.02 71.8156C250.153 71.9089 250.348 71.9654 250.573 71.9956C251.137 72.0721 251.895 71.9868 252.396 71.9089C252.498 71.6653 252.547 71.517 252.547 71.517C252.547 71.517 252.709 71.4826 252.941 71.4021C252.903 71.3877 252.861 71.3847 252.82 71.3938C252.029 71.5555 250.636 71.7175 250.267 71.4598C250.22 71.4261 250.164 71.3677 250.167 71.2243C250.178 70.7847 250.748 70.0198 251.336 69.6524C251.431 69.5937 251.465 69.4758 251.417 69.3764C251.37 69.2749 251.254 69.2278 251.15 69.2646C250.644 69.4411 249.217 69.814 248.68 69.44C248.602 69.3853 248.602 69.3421 248.604 69.3189C248.606 69.215 248.692 69.0786 248.822 68.931C249.089 68.631 249.546 68.2842 249.891 68.072C249.931 68.0469 249.96 68.0135 249.976 67.9738C250.004 67.9102 250.001 67.8373 249.962 67.7747C249.9 67.6726 249.766 67.6408 249.663 67.7033C249.509 67.798 248.97 68.1428 248.583 68.5503C248.443 68.6985 248.322 68.8564 248.249 69.0131C248.201 69.112 248.173 69.2109 248.17 69.3073C248.167 69.4436 248.209 69.6397 248.431 69.7958C248.907 70.1251 249.728 70.0545 250.373 69.9224Z" fill="#D99662"/>
<path d="M247.746 67.1997C247.821 67.2483 247.859 67.3372 247.839 67.4238C247.777 67.6994 247.766 67.9515 247.822 68.1215C247.869 68.2555 247.941 68.2914 247.998 68.307C248.091 68.3312 248.222 68.322 248.377 68.2874C248.762 68.2018 249.297 67.9612 249.769 67.7108C249.753 67.7506 249.724 67.7845 249.685 67.8097C249.34 68.0215 248.883 68.3682 248.616 68.6682C248.567 68.6826 248.517 68.6949 248.469 68.7055C248.314 68.739 248.169 68.7565 248.043 68.7499C247.987 68.7463 247.936 68.7391 247.888 68.7261C247.659 68.6655 247.495 68.5038 247.413 68.2598C247.326 68.0031 247.339 67.6709 247.415 67.3258C247.448 67.1799 247.615 67.113 247.74 67.1956C247.742 67.1971 247.745 67.1983 247.746 67.1997Z" fill="#D99662"/>
<path d="M244.063 68.6004C244.114 68.6225 244.892 68.9525 245.713 69.0638C246.167 69.1255 246.635 69.1195 246.998 68.9567C247.297 68.8221 247.501 68.5986 247.604 68.2909C247.968 67.1996 247.034 66.2386 246.443 65.7627C246.34 65.9732 246.283 66.0939 246.283 66.0939C246.283 66.0939 246.211 66.0691 246.085 66.0343C246.586 66.4218 247.49 67.2695 247.194 68.1536C247.131 68.3437 247.009 68.477 246.821 68.5614C246.12 68.8764 244.716 68.409 244.234 68.2026C244.124 68.155 243.996 68.2053 243.95 68.316C243.902 68.4254 243.954 68.5529 244.063 68.6004Z" fill="#D99662"/>
<path d="M247.282 73.9288C247.356 73.939 247.433 73.9103 247.482 73.847C247.555 73.7525 247.539 73.6168 247.444 73.5428C246.935 73.1469 246.659 72.6628 246.623 72.1045C246.532 70.6726 247.996 69.1805 248.01 69.1653C248.095 69.0806 248.094 68.9434 248.009 68.8591C247.925 68.7749 247.787 68.7752 247.703 68.86C247.637 68.9268 246.087 70.5081 246.191 72.1322C246.235 72.8194 246.567 73.4093 247.177 73.8851C247.209 73.9091 247.245 73.9238 247.282 73.9288Z" fill="#D99662"/>
<path d="M235.3 91.1504C234.493 93.7897 231.699 95.2753 229.06 94.4683C226.421 93.6614 224.935 90.8674 225.742 88.2282C226.549 85.5889 229.343 84.1033 231.982 84.9102C234.621 85.7171 236.107 88.5111 235.3 91.1504Z" fill="#FF8E3A"/>
<path d="M221.214 70.4005C220.349 73.2286 217.355 74.8204 214.527 73.9559C211.699 73.0913 210.107 70.0973 210.972 67.2692C211.836 64.441 214.83 62.8502 217.658 63.7148C220.486 64.5793 222.078 67.5723 221.214 70.4005Z" fill="#FF8E3A"/>
<path d="M229.931 94.7321C228.99 94.4681 228.063 94.0482 227.242 93.5205C226.831 93.2572 226.445 92.9687 226.089 92.6655L225.829 92.4385L225.614 92.2374C225.54 92.1681 225.48 92.1084 225.414 92.0438C225.35 91.981 225.28 91.9141 225.223 91.8541C224.735 91.3591 224.327 90.9011 223.941 90.4515C223.175 89.5549 222.503 88.6925 221.851 87.83C221.203 86.9664 220.592 86.1052 219.989 85.2445C219.389 84.3847 218.802 83.5246 218.233 82.6582C217.663 81.7931 217.1 80.9284 216.547 80.0596C215.998 79.1891 215.455 78.317 214.918 77.443C214.387 76.5655 213.858 75.6872 213.339 74.8028L212.567 73.4719L212.187 72.7995C212.058 72.5727 211.936 72.355 211.803 72.1123L221.136 66.7724L224.31 71.846C224.803 72.7021 225.301 73.5542 225.803 74.4019C226.3 75.252 226.798 76.099 227.302 76.937C227.808 77.7738 228.309 78.609 228.816 79.4306C229.323 80.2511 229.837 81.0606 230.35 81.843C230.858 82.6258 231.375 83.3907 231.871 84.064C232.117 84.3977 232.36 84.7089 232.561 84.9493L232.696 85.107L232.751 85.1708C232.762 85.1849 232.764 85.1889 232.769 85.1996C232.788 85.2324 232.8 85.2542 232.806 85.2725C232.819 85.3088 232.809 85.3309 232.83 85.3625C232.85 85.3945 232.911 85.4312 233.034 85.4603L229.931 94.7321Z" fill="#FF8E3A"/>
<path d="M219.968 85.3409C219.917 85.3252 219.869 85.2943 219.833 85.2487C217.591 82.3797 213.805 76.6219 213.767 76.5642C213.684 76.4386 213.719 76.2689 213.845 76.1861C213.971 76.1037 214.14 76.1393 214.223 76.2649C214.26 76.3225 218.034 82.062 220.263 84.913C220.355 85.0316 220.334 85.2026 220.216 85.2949C220.143 85.3519 220.05 85.366 219.968 85.3409Z" fill="#C17033"/>
<path d="M215.459 78.9863C215.447 78.9827 215.434 78.9783 215.422 78.9722L213.502 78.0657C213.365 78.0016 213.307 77.8394 213.371 77.703C213.435 77.5671 213.598 77.5074 213.734 77.5733L215.654 78.4794C215.79 78.5439 215.849 78.7063 215.785 78.8421C215.726 78.9663 215.586 79.0254 215.459 78.9863Z" fill="#C17033"/>
<path d="M77.4462 94.9835L83.8254 118.308L81.5516 115.686C82.3944 116.134 83.3684 116.479 84.4475 116.721C85.5258 116.964 86.7025 117.103 87.9316 117.167C89.162 117.231 90.4443 117.219 91.7545 117.165C93.0655 117.11 94.4053 117.012 95.7652 116.896L95.7726 116.896C97.7787 116.725 99.5436 118.212 99.7145 120.218C99.8776 122.131 98.5203 123.826 96.6564 124.128C95.2538 124.352 93.8272 124.563 92.364 124.733C90.9012 124.901 89.4009 125.029 87.8475 125.064C86.2949 125.097 84.686 125.04 83.0227 124.798C81.3624 124.557 79.6402 124.124 77.9572 123.398C76.8799 122.934 76.1125 122.05 75.7642 121.02L75.6835 120.777L68.0308 97.8393C67.1706 95.2612 68.5632 92.4738 71.1417 91.614C73.7202 90.7534 76.5075 92.146 77.3678 94.7245C77.3948 94.8051 77.4236 94.9019 77.4462 94.9835Z" fill="#EAAB7A"/>
<path d="M67.1492 61.8164C67.1492 61.8164 65.6417 56.4262 59.8877 56.7077C55.8653 56.9047 53.5905 61.6108 52.902 69.2185C51.9002 80.2922 47.3606 86.4866 47.3606 86.4866L52.1771 88.2139C52.1771 88.2139 67.0824 70.8326 67.1492 61.8164Z" fill="#3B3A39"/>
<path d="M144.536 201.949C144.536 204.072 116.263 205.792 81.386 205.792C46.509 205.792 18.2353 204.072 18.2353 201.949C18.2353 199.827 46.509 198.106 81.386 198.106C116.263 198.106 144.536 199.827 144.536 201.949Z" fill="#E4E1CC"/>
<path d="M79.9027 179.54C79.8076 179.54 79.7113 179.523 79.6167 179.489L46.1995 167.441C45.7617 167.284 45.5346 166.8 45.6928 166.363C45.8502 165.925 46.3333 165.697 46.7715 165.856L80.1883 177.904C80.6265 178.061 80.8536 178.545 80.6953 178.983C80.572 179.326 80.248 179.54 79.9027 179.54Z" fill="#C17033"/>
<path d="M45.0977 179.54C44.7528 179.54 44.4289 179.327 44.3046 178.984C44.1464 178.546 44.3726 178.062 44.8104 177.904L78.6239 165.658C79.0617 165.499 79.5452 165.725 79.7035 166.163C79.8622 166.601 79.6363 167.084 79.1986 167.243L45.3842 179.489C45.2896 179.523 45.1932 179.54 45.0977 179.54Z" fill="#C17033"/>
<path d="M82.8744 201.071C82.1629 201.071 81.5438 200.545 81.4465 199.82L75.4106 154.753H50.1531L44.2113 199.817C44.1071 200.607 43.3829 201.163 42.5928 201.059C41.8028 200.955 41.2469 200.229 41.3511 199.44L47.4582 153.121C47.5528 152.404 48.1645 151.868 48.8882 151.868H76.6728C77.3957 151.868 78.0065 152.403 78.1029 153.119L84.3058 199.437C84.4118 200.227 83.8572 200.953 83.0676 201.058C83.0026 201.067 82.9381 201.071 82.8744 201.071Z" fill="#FF8E3A"/>
<path d="M68.6255 153.31H50.5804C44.8635 153.31 38.7412 150.181 37.8636 144.532C36.6899 136.978 36.3995 129.663 36.7273 122.949C37.0975 115.357 40.7233 108.294 46.6921 103.587C46.6921 103.587 50.2965 119.295 45.7639 140.976C47.4948 149.214 68.6255 153.31 68.6255 153.31Z" fill="#FF8E3A"/>
<path d="M110.373 181.759H102.314C102.314 181.759 100.448 172.813 99.8227 167.797C99.1962 162.78 98.8718 150.886 98.8718 150.886C98.8718 150.886 92.4482 152.973 79.0028 152.187C49.2109 150.447 60.5073 128.558 60.5073 128.558C61.514 129.949 67.6795 128.985 71.8938 129.649C84.8282 130.891 96.0456 135.967 102.778 138.872C104.399 139.57 105.84 140.31 107.102 141.089C108.725 142.089 109.741 145.125 110.353 149.117C112.192 161.116 110.373 181.759 110.373 181.759Z" fill="#3B3A39"/>
<path d="M103.313 177.449C103.179 177.449 103.059 177.354 103.031 177.217C101.869 171.462 101.478 164.299 101.164 158.544C100.904 153.771 100.658 149.263 100.045 148.721C99.5489 148.282 97.487 148.625 94.8767 149.058C89.6844 149.92 81.8377 151.223 73.1844 149.209C68.4708 148.113 65.0059 145.823 62.8852 142.404C59.2285 136.509 60.8957 129.199 60.9127 129.125C60.9493 128.971 61.105 128.874 61.2598 128.911C61.415 128.948 61.5114 129.103 61.4747 129.258C61.4577 129.329 59.8467 136.415 63.3783 142.105C65.4153 145.386 68.7585 147.587 73.3152 148.647C81.8569 150.635 89.6351 149.344 94.7821 148.489C97.8646 147.977 99.7254 147.668 100.427 148.289C101.186 148.959 101.399 152.256 101.741 158.512C102.053 164.249 102.442 171.389 103.596 177.103C103.628 177.259 103.527 177.411 103.371 177.443C103.352 177.447 103.332 177.449 103.313 177.449Z" fill="#5A5958"/>
<path d="M110.528 177.6H110.521L101.559 177.408C101.399 177.404 101.273 177.272 101.276 177.113C101.28 176.954 101.41 176.824 101.571 176.831L110.534 177.023C110.693 177.027 110.819 177.159 110.816 177.318C110.813 177.475 110.684 177.6 110.528 177.6Z" fill="#5A5958"/>
<path d="M110.152 192.086H104.463L103.367 185.412L102.767 181.759H109.835L109.947 185.412L110.152 192.086Z" fill="#EAAB7A"/>
<path d="M110.151 192.086H104.462L103.646 187.117L103.366 185.412H109.947L110.002 187.179L110.151 192.086Z" fill="#FF8E3A"/>
<path d="M110.002 187.18L103.647 187.117L103.367 185.412H109.947L110.002 187.18Z" fill="#C17033"/>
<path d="M124.191 201.071H102.673C102.513 200.78 102.426 200.368 102.39 199.876C102.255 198.056 102.835 195.151 103.12 193.32C103.155 193.105 103.184 192.906 103.207 192.726C103.247 192.419 103.272 192.164 103.272 191.977C103.272 190.483 104.595 190.739 104.595 190.739C106.772 192.874 109.237 189.672 110.677 190.723C110.677 190.723 110.736 190.765 110.867 190.869C110.988 190.963 111.172 191.111 111.427 191.325C111.793 191.632 112.308 192.077 113.005 192.704C114.713 194.241 117.618 195.255 120.092 196.289C120.408 196.421 120.7 196.553 120.972 196.684C121.178 196.783 121.372 196.884 121.556 196.983C123.578 198.074 124.221 199.118 124.367 199.876C124.507 200.604 124.191 201.071 124.191 201.071Z" fill="#F7D707"/>
<path d="M121.556 196.983C121.002 197.424 119.769 198.307 118.78 198.307C118.737 198.307 118.693 198.305 118.65 198.302C117.952 198.244 115.388 196.983 113.302 195.837C112.106 195.179 111.014 194.533 110.229 194.014C108.941 193.165 108.718 192.841 108.667 192.616C108.479 191.767 109.883 191.175 110.867 190.869C110.988 190.964 111.172 191.111 111.427 191.326C110.204 191.659 109.2 192.181 109.246 192.479C109.366 192.731 110.639 193.702 113.684 195.369C116.008 196.64 118.211 197.668 118.7 197.709C119.362 197.762 120.336 197.159 120.972 196.684C121.178 196.784 121.372 196.884 121.556 196.983Z" fill="#AA5F26"/>
<path d="M124.191 201.071H102.673C102.513 200.781 102.426 200.368 102.39 199.876H124.367C124.507 200.604 124.191 201.071 124.191 201.071Z" fill="#AA5F26"/>
<path d="M104.868 201.071H104.229C104.867 200.342 105.464 199.224 105.386 197.626C105.282 195.5 104.007 194.067 103.12 193.32C103.155 193.105 103.184 192.906 103.207 192.725C104.163 193.455 105.773 195.054 105.898 197.6C105.972 199.126 105.471 200.265 104.868 201.071Z" fill="#AA5F26"/>
<path d="M112.641 193.972C112.481 193.972 112.336 193.865 112.297 193.703C112.25 193.513 112.366 193.321 112.556 193.274L113.899 192.94C114.089 192.893 114.282 193.009 114.329 193.199C114.376 193.389 114.261 193.581 114.071 193.628L112.727 193.962C112.698 193.969 112.669 193.972 112.641 193.972Z" fill="#FEF5BD"/>
<path d="M111.305 192.854C111.146 192.854 111.001 192.746 110.961 192.585C110.914 192.395 111.03 192.202 111.22 192.155L112.564 191.822C112.754 191.774 112.946 191.89 112.993 192.081C113.04 192.27 112.925 192.463 112.735 192.51L111.391 192.844C111.362 192.851 111.333 192.854 111.305 192.854Z" fill="#FEF5BD"/>
<path d="M113.984 194.754C113.825 194.754 113.68 194.647 113.64 194.485C113.593 194.295 113.709 194.103 113.899 194.055L115.244 193.722C115.434 193.674 115.626 193.79 115.673 193.981C115.72 194.17 115.604 194.363 115.414 194.41L114.07 194.744C114.041 194.751 114.013 194.754 113.984 194.754Z" fill="#FEF5BD"/>
<path d="M115.329 195.505C115.169 195.505 115.025 195.397 114.985 195.236C114.937 195.045 115.053 194.854 115.244 194.806L116.588 194.473C116.778 194.425 116.97 194.542 117.017 194.732C117.064 194.922 116.948 195.114 116.758 195.161L115.414 195.495C115.386 195.502 115.357 195.505 115.329 195.505Z" fill="#FEF5BD"/>
<path d="M116.794 196.2C116.635 196.2 116.491 196.092 116.45 195.931C116.403 195.741 116.519 195.548 116.709 195.501L118.054 195.168C118.244 195.12 118.436 195.236 118.483 195.427C118.53 195.616 118.414 195.809 118.224 195.856L116.88 196.19C116.852 196.197 116.823 196.2 116.794 196.2Z" fill="#FEF5BD"/>
<path d="M118.384 196.793C118.224 196.793 118.08 196.684 118.04 196.523C117.993 196.333 118.108 196.141 118.299 196.094L119.643 195.76C119.832 195.712 120.025 195.829 120.072 196.019C120.119 196.209 120.003 196.401 119.813 196.448L118.469 196.782C118.44 196.789 118.412 196.793 118.384 196.793Z" fill="#FEF5BD"/>
<path d="M45.5882 121.62C45.5882 121.62 45.3331 123.358 47.6618 123.847L71.937 124.657C71.937 124.657 73.5772 123.832 73.2816 121.799C73.2816 121.799 63.0321 116.042 45.5882 121.62Z" fill="#AA5F26"/>
<path d="M72.2697 129.649C59.6693 136.58 45.91 130.999 45.91 130.999C46.5832 129.163 47.0819 127.092 47.4434 125.208C47.8633 123.017 48.0991 121.081 48.2064 120.063C53.5666 119.769 66.7046 119.211 71.8528 120.431L71.8938 122.495L72.2697 129.649Z" fill="#EAAB7A"/>
<path d="M62.9623 126.325C62.869 126.975 62.5756 127.47 62.307 127.432C62.038 127.393 61.8954 126.835 61.9887 126.185C62.0816 125.535 62.375 125.041 62.644 125.079C62.9126 125.117 63.0552 125.675 62.9623 126.325Z" fill="#D99662"/>
<path d="M71.8942 122.495C66.5284 122.169 55.9698 122.055 47.4434 125.208C47.8637 123.017 48.0991 121.081 48.2064 120.064C53.5665 119.769 66.705 119.211 71.8528 120.432L71.8942 122.495Z" fill="#D99662"/>
<path d="M77.8801 112.525C77.83 112.68 77.7689 112.825 77.6992 112.963C77.6734 113.014 77.6468 113.065 77.6189 113.115C76.9444 114.368 75.8993 115.452 75.0247 116.224C74.8425 116.384 74.6681 116.531 74.5063 116.662C74.1833 116.924 73.909 117.128 73.7207 117.263C73.5471 117.386 73.4455 117.451 73.4455 117.451C73.4442 117.463 73.4434 117.474 73.4421 117.488C73.4325 117.582 73.425 117.68 73.4163 117.784C73.3867 118.18 73.3596 118.653 73.3405 119.192C73.3235 119.625 73.3117 120.101 73.2999 120.612C73.2934 120.99 73.286 121.387 73.2816 121.799C66.1604 118.618 51.4956 120.625 45.5886 121.62C45.6968 121.109 45.7957 120.611 45.8864 120.122C46.3041 117.87 46.5382 115.84 46.6315 114.024C46.7715 111.32 46.5347 107.256 45.961 103.058C45.9248 102.785 45.886 102.514 45.8463 102.241C45.8206 102.063 45.794 101.887 45.7652 101.709C45.5638 100.391 45.3292 99.0705 45.0619 97.79C43.8969 92.2022 44.7149 86.3371 50.3798 85.643C50.791 85.5929 51.1965 85.5466 51.5897 85.5048C54.2598 85.2201 56.4568 85.1229 57.0672 85.0993C57.1788 85.095 57.2364 85.0928 57.2364 85.0928L68.1883 88.2738L69.2303 88.5755C69.8285 88.7683 70.3822 88.9549 70.8941 89.1367C71.1125 89.216 71.3244 89.2932 71.528 89.3691C72.0586 89.5683 72.5408 89.7632 72.9777 89.9559C73.8545 90.3431 74.5495 90.7215 75.0984 91.1122C77.5012 92.8178 77.1284 94.7449 77.0674 98.5512C77.0674 98.5682 77.0665 98.5857 77.0665 98.6027C77.0652 98.6506 77.0652 98.699 77.0643 98.7492C77.063 98.771 77.0643 98.7932 77.0643 98.8146C77.0622 98.9698 77.0622 99.125 77.063 99.2807C77.0665 99.7716 77.0835 100.261 77.1136 100.75C77.1542 101.469 77.2182 102.183 77.2967 102.883C77.3277 103.164 77.3599 103.443 77.394 103.72C77.4262 103.979 77.4594 104.239 77.4938 104.495C77.9329 107.827 78.4757 110.747 77.8801 112.525Z" fill="#F7D707"/>
<path d="M77.0665 98.6028C77.0656 98.6507 77.0656 98.6996 77.0643 98.7497C77.0634 98.7715 77.0643 98.7937 77.0643 98.8151C77.0621 98.9703 77.0621 99.1255 77.0634 99.2812L74.7622 100.725C74.6929 100.769 74.6127 100.783 74.5364 100.77C74.45 100.755 74.3694 100.705 74.3192 100.624C74.2251 100.474 74.2709 100.276 74.4208 100.182L76.8611 98.6503C76.9239 98.6106 76.9967 98.5953 77.0665 98.6028Z" fill="#AA5F26"/>
<path d="M61.8933 110.929C61.8052 110.929 61.718 110.894 61.6543 110.823C61.5358 110.691 61.5462 110.488 61.6779 110.369L63.8195 108.442C63.9516 108.324 64.1548 108.334 64.2734 108.466C64.392 108.598 64.3815 108.801 64.2494 108.92L62.1082 110.847C62.0467 110.902 61.97 110.929 61.8933 110.929Z" fill="#AA5F26"/>
<path d="M77.4938 104.494L76.0271 105.815C75.9647 105.871 75.8889 105.897 75.8117 105.897C75.7236 105.897 75.636 105.862 75.5728 105.791C75.4542 105.66 75.4651 105.456 75.5963 105.338L77.3939 103.72C77.4262 103.98 77.4593 104.238 77.4938 104.494Z" fill="#AA5F26"/>
<path d="M57.5507 103.181C57.5006 103.108 57.4796 103.016 57.5014 102.924C57.542 102.751 57.7151 102.644 57.8877 102.685L60.6921 103.346C60.8647 103.387 60.9716 103.559 60.931 103.732C60.8905 103.904 60.7174 104.012 60.5447 103.971L57.7408 103.31C57.6601 103.291 57.5943 103.244 57.5507 103.181Z" fill="#AA5F26"/>
<path d="M47.5463 108.681C47.4582 108.681 47.371 108.645 47.3074 108.575C47.1888 108.444 47.1992 108.24 47.3309 108.121L49.4725 106.194C49.6046 106.076 49.8078 106.086 49.9264 106.218C50.045 106.35 50.0345 106.553 49.9024 106.672L47.7612 108.599C47.6998 108.654 47.623 108.681 47.5463 108.681Z" fill="#AA5F26"/>
<path d="M72.4698 108.223C72.4972 108.139 72.5591 108.068 72.6463 108.03C72.809 107.959 72.9978 108.033 73.0684 108.196L74.2194 110.838C74.2901 111 74.2155 111.189 74.0529 111.26C73.8902 111.331 73.701 111.256 73.6304 111.094L72.4798 108.452C72.4471 108.377 72.4453 108.295 72.4698 108.223Z" fill="#AA5F26"/>
<path d="M77.8805 112.525C77.8304 112.68 77.7693 112.825 77.6996 112.963C77.6739 113.014 77.6473 113.065 77.6194 113.115L76.055 112.623C75.9756 112.598 75.9137 112.545 75.8754 112.479C75.8305 112.404 75.8165 112.31 75.8453 112.22C75.8989 112.05 76.0785 111.956 76.2477 112.01L77.8805 112.525Z" fill="#AA5F26"/>
<path d="M69.0389 112.755C69.1261 112.746 69.2168 112.774 69.2865 112.837C69.4182 112.956 69.4287 113.159 69.3092 113.291L67.3725 115.424C67.2534 115.556 67.0507 115.565 66.9195 115.446C66.7878 115.327 66.7782 115.124 66.8972 114.993L68.8331 112.859C68.8885 112.798 68.9626 112.763 69.0389 112.755Z" fill="#AA5F26"/>
<path d="M67.8987 107.836C67.812 107.821 67.7318 107.771 67.6816 107.69C67.5874 107.54 67.6328 107.342 67.7828 107.247L70.2231 105.717C70.373 105.622 70.5714 105.667 70.6656 105.818C70.7598 105.968 70.7144 106.166 70.5644 106.26L68.1246 107.792C68.0544 107.836 67.9742 107.849 67.8987 107.836Z" fill="#AA5F26"/>
<path d="M69.4531 98.5586C69.5115 98.624 69.5433 98.7134 69.5329 98.808C69.5137 98.9842 69.355 99.1119 69.1788 99.0923L66.3148 98.7801C66.1386 98.7609 66.0109 98.6022 66.03 98.4256C66.0497 98.2495 66.2079 98.1226 66.3845 98.1418L69.2482 98.4536C69.3306 98.4623 69.4021 98.5015 69.4531 98.5586Z" fill="#AA5F26"/>
<path d="M65.2893 92.3465C65.3102 92.261 65.366 92.1847 65.4493 92.1398C65.6058 92.0557 65.8002 92.1145 65.8844 92.2706L67.2473 94.8086C67.3315 94.9651 67.2726 95.16 67.1165 95.2437C66.9604 95.3274 66.7655 95.269 66.6814 95.1125L65.3185 92.5745C65.2792 92.5017 65.2709 92.4206 65.2893 92.3465Z" fill="#AA5F26"/>
<path d="M75.0247 116.224C74.8425 116.384 74.6681 116.531 74.5063 116.662L74.1296 115.703C74.0982 115.626 74.1004 115.544 74.1274 115.472C74.1584 115.39 74.2229 115.321 74.3106 115.287C74.4754 115.221 74.6615 115.302 74.7269 115.467L75.0247 116.224Z" fill="#AA5F26"/>
<path d="M48.6912 111.343C48.6498 111.266 48.6397 111.172 48.672 111.083C48.7317 110.916 48.9162 110.829 49.0827 110.89L51.7942 111.864C51.9612 111.924 52.0475 112.108 51.9878 112.276C51.9276 112.442 51.7432 112.529 51.5762 112.469L48.8652 111.493C48.7875 111.466 48.7274 111.411 48.6912 111.343Z" fill="#AA5F26"/>
<path d="M50.0193 115.008C50.1073 115.008 50.1945 115.045 50.2573 115.116C50.3746 115.249 50.3624 115.452 50.2294 115.569L48.0717 117.478C47.9387 117.596 47.7359 117.583 47.6182 117.45C47.5005 117.318 47.5131 117.114 47.6461 116.997L49.8039 115.088C49.8658 115.034 49.9425 115.007 50.0193 115.008Z" fill="#AA5F26"/>
<path d="M53.9288 118.038C53.9833 118.107 54.0091 118.198 53.9934 118.292C53.9637 118.466 53.798 118.584 53.6232 118.555L50.7827 118.071C50.6078 118.041 50.4901 117.875 50.5202 117.7C50.5498 117.525 50.7155 117.407 50.8908 117.437L53.7305 117.921C53.812 117.935 53.8813 117.978 53.9288 118.038Z" fill="#AA5F26"/>
<path d="M56.3042 91.0678C56.2811 90.9832 56.2928 90.889 56.3443 90.8092C56.4402 90.6601 56.639 90.6174 56.7881 90.7137L59.2092 92.2755C59.3579 92.3714 59.4011 92.5702 59.3047 92.7193C59.2088 92.8685 59.01 92.9116 58.8609 92.8153L56.4402 91.2535C56.3704 91.2086 56.3242 91.1415 56.3042 91.0678Z" fill="#AA5F26"/>
<path d="M72.8212 92.9081C72.8984 92.8662 72.9926 92.8558 73.0819 92.8876C73.2489 92.9469 73.3366 93.1309 73.2773 93.2983L72.3137 96.0129C72.2544 96.1798 72.0708 96.2675 71.9039 96.2082C71.7364 96.1489 71.6492 95.9658 71.7085 95.7983L72.6717 93.0829C72.6991 93.0049 72.7541 92.9443 72.8212 92.9081Z" fill="#AA5F26"/>
<path d="M71.5284 89.3691L70.0399 91.277C69.9309 91.4174 69.7295 91.4423 69.5891 91.3333C69.4487 91.2239 69.4243 91.0224 69.5333 90.882L70.8941 89.1367C71.1125 89.2161 71.3248 89.2932 71.5284 89.3691Z" fill="#AA5F26"/>
<path d="M56.9787 115.72C57.0092 115.812 57.0864 115.876 57.1762 115.894C57.2198 115.903 57.2656 115.901 57.31 115.886C57.3576 115.87 62.0167 114.361 66.9204 116.393C69.4121 117.425 71.627 117.82 73.4172 117.784C73.425 117.68 73.4329 117.582 73.4425 117.488C73.4438 117.475 73.4447 117.464 73.446 117.452C73.446 117.452 73.5471 117.386 73.7206 117.263C71.9605 117.349 69.7033 116.977 67.1218 115.908C62.0315 113.8 57.3414 115.322 57.1448 115.388C57.007 115.434 56.9329 115.582 56.9787 115.72Z" fill="#AA5F26"/>
<path d="M68.1882 88.2742C67.5757 89.2256 66.3078 90.3038 63.7445 90.1177C60.2077 89.8609 57.8803 86.4866 57.0676 85.0993C57.1779 85.0949 57.2359 85.0936 57.2359 85.0936L68.1882 88.2742Z" fill="#AA5F26"/>
<path d="M64.4264 94.5344C64.5306 94.5557 64.6349 94.5706 64.7391 94.5793C65.7174 94.6578 66.5092 94.3739 67.0935 93.7361C68.7943 91.8778 68.0958 87.6421 68.0649 87.4629C68.0409 87.3203 67.9044 87.2244 67.7627 87.2484C67.6201 87.2728 67.5238 87.408 67.5482 87.551C67.5552 87.5924 68.2345 91.7139 66.7063 93.3825C66.2306 93.9017 65.6006 94.1224 64.7813 94.0561C61.3535 93.7805 57.5145 85.0762 57.4762 84.9882C57.4182 84.8556 57.2638 84.7954 57.1309 84.853C56.9983 84.9114 56.9377 85.0658 56.9957 85.1983C57.1531 85.5589 60.7941 93.7984 64.4264 94.5344Z" fill="#FEF5BD"/>
<path d="M75.0993 91.1122C74.8734 93.6253 75.4913 97.7708 77.1132 100.75C77.0752 100.107 77.0574 99.462 77.0643 98.8146C77.0643 98.7932 77.0639 98.7705 77.0639 98.7492C77.0656 98.6825 77.067 98.6171 77.0678 98.5517C77.1289 94.7454 77.5008 92.8174 75.0993 91.1122Z" fill="#EAAB7A"/>
<path d="M54.9539 95.5332C53.6974 100.381 49.1037 104.272 45.9614 103.058C45.9243 102.785 45.886 102.514 45.8463 102.241C45.8206 102.064 45.7935 101.887 45.7656 101.709C45.5646 100.391 45.3288 99.071 45.0611 97.79C43.8969 92.2026 44.7153 86.3376 50.3798 85.6435C50.7914 85.5933 51.1965 85.5471 51.5902 85.5052C54.4272 86.7138 56.4006 89.9507 54.9539 95.5332Z" fill="#EAAB7A"/>
<path d="M58.8954 117.893C58.8195 117.893 58.7458 117.853 58.7057 117.783C58.646 117.679 58.6826 117.545 58.7868 117.485C58.8548 117.447 60.4663 116.537 62.1497 116.407C62.2709 116.398 62.3746 116.488 62.3838 116.608C62.3929 116.728 62.3031 116.833 62.1832 116.842C60.5992 116.964 59.0187 117.856 59.003 117.865C58.9686 117.884 58.932 117.893 58.8954 117.893Z" fill="#D99662"/>
<path d="M61.5702 116.921C61.5318 116.921 61.4926 116.911 61.4573 116.889C60.4423 116.273 59.2132 116.18 59.201 116.179C59.0811 116.17 58.9904 116.066 58.9991 115.946C59.0074 115.826 59.1086 115.737 59.2319 115.744C59.2864 115.748 60.5792 115.846 61.6836 116.517C61.7865 116.579 61.8192 116.713 61.7568 116.816C61.7158 116.884 61.6439 116.921 61.5702 116.921Z" fill="#D99662"/>
<path d="M68.135 102.733C71.3933 103.393 72.8185 100.024 72.8321 99.9901C72.8874 99.8562 72.8233 99.7028 72.6895 99.6478C72.5548 99.5925 72.4022 99.657 72.3472 99.7908C72.2949 99.9177 71.0676 102.792 68.2392 102.219C65.2718 101.618 59.7342 95.7775 59.6788 95.719C59.5794 95.6131 59.4142 95.6087 59.3087 95.7081C59.2031 95.8075 59.1979 95.9732 59.2973 96.0787C59.5288 96.3242 65.0059 102.099 68.135 102.733Z" fill="#AA5F26"/>
<path d="M67.999 83.7931L67.2857 88.2468C67.2857 88.2468 63.9516 91.6503 57.8611 85.545C59.4961 84.3263 60.1205 81.5045 59.9291 79.6794C59.9291 79.6794 60.4096 79.9685 61.149 80.6382C61.2933 80.769 61.4786 80.8706 61.6609 80.9953C63.2706 82.0901 65.737 83.5145 67.999 83.7931Z" fill="#EAAB7A"/>
<path d="M67.999 83.7931L67.6611 85.9051C65.8343 85.0911 62.604 83.3497 61.1495 80.6382C61.3082 80.7515 61.4787 80.8706 61.6609 80.9953C63.2706 82.0901 65.7371 83.5145 67.999 83.7931Z" fill="#CD976E"/>
<path d="M96.3417 181.787H88.2813C88.2813 181.787 86.4161 172.841 85.7904 167.825C85.1639 162.808 84.8395 150.914 84.8395 150.914C84.8395 150.914 78.4164 153.001 64.971 152.215C35.1796 150.474 46.475 128.586 46.475 128.586C47.4817 129.977 55.0324 131.893 59.2468 132.557C72.1811 133.799 82.0134 135.995 88.7457 138.9C90.3667 139.598 91.8077 140.338 93.0699 141.117C94.6931 142.117 95.709 145.153 96.3207 149.145C98.1602 161.144 96.3417 181.787 96.3417 181.787Z" fill="#3B3A39"/>
<path d="M89.2815 177.476C89.1468 177.476 89.0268 177.382 88.9989 177.245C87.8366 171.49 87.4464 164.327 87.1324 158.571C86.8721 153.798 86.6267 149.291 86.0137 148.749C85.517 148.31 83.4552 148.652 80.8449 149.086C75.6525 149.948 67.8059 151.251 59.1526 149.237C54.439 148.14 50.9741 145.851 48.8534 142.432C45.1966 136.536 46.8635 129.226 46.8809 129.153C46.9175 128.998 47.0732 128.902 47.228 128.939C47.3827 128.975 47.4791 129.13 47.4425 129.286C47.4259 129.356 45.8149 136.443 49.3465 142.132C51.3835 145.413 54.7267 147.615 59.2829 148.675C67.8246 150.662 75.6028 149.371 80.7503 148.516C83.8328 148.005 85.6936 147.696 86.3956 148.316C87.1542 148.987 87.3674 152.283 87.7088 158.539C88.0214 164.277 88.4103 171.417 89.5644 177.131C89.5963 177.287 89.4951 177.439 89.339 177.47C89.3194 177.474 89.3002 177.476 89.2815 177.476Z" fill="#5A5958"/>
<path d="M96.4956 177.628H96.4895L87.5266 177.436C87.367 177.432 87.2406 177.3 87.2441 177.141C87.2476 176.982 87.3779 176.852 87.5388 176.859L96.5017 177.051C96.6608 177.055 96.7873 177.187 96.7842 177.346C96.7807 177.503 96.6521 177.628 96.4956 177.628Z" fill="#5A5958"/>
<path d="M96.1197 192.114H90.4308L89.3351 185.439L88.7347 181.787H95.8027L95.9148 185.439L96.1197 192.114Z" fill="#EAAB7A"/>
<path d="M96.1197 192.114H90.4303L89.6141 187.145L89.3347 185.44H95.9148L95.9693 187.208L96.1197 192.114Z" fill="#FF8E3A"/>
<path d="M95.9698 187.207L89.6146 187.145L89.3347 185.44H95.9153L95.9698 187.207Z" fill="#C17033"/>
<path d="M110.159 201.099H88.6406C88.481 200.809 88.3942 200.396 88.3585 199.904C88.2233 198.084 88.8032 195.179 89.0879 193.348C89.1224 193.133 89.1529 192.934 89.1756 192.753C89.2152 192.447 89.2401 192.192 89.2401 192.005C89.2401 190.511 90.5629 190.767 90.5629 190.767C92.7403 192.902 95.2054 189.7 96.6451 190.75C96.6451 190.75 96.7035 190.793 96.8352 190.897C96.9564 190.991 97.14 191.139 97.395 191.353C97.7617 191.66 98.2766 192.105 98.9738 192.732C100.681 194.269 103.587 195.283 106.061 196.317C106.376 196.449 106.669 196.581 106.94 196.712C107.147 196.811 107.341 196.912 107.524 197.011C109.546 198.102 110.189 199.146 110.336 199.904C110.475 200.632 110.159 201.099 110.159 201.099Z" fill="#F7D707"/>
<path d="M107.524 197.01C106.97 197.451 105.737 198.334 104.748 198.334C104.705 198.334 104.661 198.333 104.618 198.329C103.92 198.271 101.356 197.01 99.2694 195.864C98.0739 195.206 96.9821 194.56 96.1969 194.041C94.9085 193.193 94.6853 192.868 94.6347 192.643C94.4463 191.794 95.8507 191.202 96.8352 190.896C96.9564 190.991 97.1395 191.139 97.3946 191.353C96.1716 191.686 95.1675 192.208 95.2141 192.506C95.334 192.758 96.6072 193.729 99.6522 195.396C101.976 196.667 104.179 197.695 104.668 197.736C105.33 197.789 106.304 197.186 106.94 196.711C107.146 196.811 107.341 196.911 107.524 197.01Z" fill="#AA5F26"/>
<path d="M110.158 201.099H88.641C88.481 200.808 88.3942 200.395 88.3585 199.903H110.335C110.475 200.631 110.158 201.099 110.158 201.099Z" fill="#AA5F26"/>
<path d="M90.8363 201.099H90.1971C90.8349 200.37 91.4318 199.252 91.3538 197.654C91.25 195.528 89.9743 194.095 89.0879 193.348C89.1223 193.134 89.152 192.933 89.1751 192.753C90.1304 193.483 91.7405 195.082 91.8661 197.628C91.9402 199.155 91.4397 200.293 90.8363 201.099Z" fill="#AA5F26"/>
<path d="M98.6084 194C98.4493 194 98.3045 193.893 98.2644 193.731C98.2173 193.541 98.3333 193.349 98.5234 193.302L99.8671 192.968C100.057 192.92 100.25 193.037 100.297 193.227C100.344 193.417 100.228 193.609 100.038 193.656L98.6938 193.99C98.6655 193.997 98.6367 194 98.6084 194Z" fill="#FEF5BD"/>
<path d="M97.2729 192.882C97.1138 192.882 96.9691 192.774 96.9289 192.613C96.8819 192.423 96.9978 192.23 97.1879 192.183L98.5321 191.85C98.7218 191.802 98.9145 191.918 98.9616 192.109C99.0087 192.298 98.8927 192.491 98.7026 192.538L97.3584 192.872C97.3301 192.879 97.3013 192.882 97.2729 192.882Z" fill="#FEF5BD"/>
<path d="M99.9526 194.782C99.7934 194.782 99.6487 194.674 99.6086 194.513C99.5615 194.323 99.6775 194.13 99.8671 194.083L101.212 193.75C101.401 193.702 101.594 193.818 101.641 194.009C101.688 194.198 101.572 194.391 101.382 194.438L100.038 194.772C100.01 194.779 99.9809 194.782 99.9526 194.782Z" fill="#FEF5BD"/>
<path d="M101.297 195.533C101.138 195.533 100.993 195.426 100.953 195.264C100.906 195.074 101.021 194.881 101.211 194.834L102.555 194.501C102.746 194.453 102.938 194.57 102.985 194.76C103.032 194.949 102.917 195.142 102.727 195.189L101.382 195.523C101.353 195.53 101.325 195.533 101.297 195.533Z" fill="#FEF5BD"/>
<path d="M102.762 196.228C102.603 196.228 102.458 196.12 102.418 195.959C102.371 195.768 102.487 195.576 102.677 195.529L104.021 195.195C104.211 195.148 104.404 195.264 104.451 195.454C104.498 195.644 104.382 195.836 104.192 195.883L102.848 196.217C102.819 196.224 102.79 196.228 102.762 196.228Z" fill="#FEF5BD"/>
<path d="M104.351 196.82C104.192 196.82 104.047 196.712 104.007 196.551C103.96 196.36 104.076 196.168 104.266 196.121L105.611 195.788C105.801 195.74 105.993 195.856 106.04 196.047C106.087 196.236 105.971 196.429 105.781 196.476L104.437 196.81C104.408 196.816 104.38 196.82 104.351 196.82Z" fill="#FEF5BD"/>
<path d="M126.033 128.266V130.052C126.033 131.08 125.411 131.914 124.644 131.914H28.0871C27.3206 131.914 26.6993 131.08 26.6993 130.052V128.266C26.6993 127.238 27.3206 126.405 28.0871 126.405H124.644C125.411 126.405 126.033 127.238 126.033 128.266Z" fill="#F7E152"/>
<path d="M126.033 129.65H26.6993V128.832H126.033V129.65Z" fill="#7C4821"/>
<path d="M123.131 136.506H32.3674C31.9615 136.506 31.6318 136.177 31.6318 135.77V131.892H123.867V135.77C123.867 136.177 123.538 136.506 123.131 136.506Z" fill="#7C4821"/>
<path d="M119.055 162.448H37.8862V159.284H119.055V162.448Z" fill="#7C4821"/>
<path d="M32.0329 201.662L47.7472 136.506H42.2288L26.514 201.662H32.0329Z" fill="#F7E152"/>
<path d="M124.799 201.662L109.084 136.506H114.603L130.318 201.662H124.799Z" fill="#F7E152"/>
<path d="M37.4869 124.271L35.7825 124.532L33.8149 111.686L35.5188 111.425L37.4869 124.271Z" fill="#FF8E3A"/>
<path d="M35.5183 111.425L33.8145 111.686L34.1894 110.384L34.3839 109.711L34.771 110.295L35.5183 111.425Z" fill="#EAAB7A"/>
<path d="M37.4868 124.271L35.7825 124.533L35.64 123.599L37.3438 123.338L37.4868 124.271Z" fill="#3B3A39"/>
<path d="M37.4873 125.032L36.0101 125.259C35.9473 125.268 35.8889 125.225 35.8793 125.163L35.7825 124.533L37.4869 124.271L37.5832 124.902C37.5928 124.965 37.5501 125.023 37.4873 125.032Z" fill="#DF955D"/>
<path d="M34.7714 110.295L34.1898 110.384L34.3843 109.711L34.7714 110.295Z" fill="#3B3A39"/>
<path d="M35.5371 122.93L37.241 122.669L37.3439 123.338L35.6396 123.599L35.5371 122.93Z" fill="#C17033"/>
<path d="M34.3354 112.254L35.7925 121.767C35.8039 121.839 35.871 121.889 35.943 121.877C36.0149 121.866 36.0642 121.799 36.0528 121.727L34.5957 112.214C34.5844 112.142 34.5172 112.093 34.4453 112.103C34.3738 112.115 34.3245 112.182 34.3354 112.254Z" fill="#C17033"/>
<path d="M35.0017 112.151L36.4592 121.665C36.4701 121.736 36.5373 121.786 36.6092 121.775C36.6812 121.764 36.7304 121.697 36.7191 121.625L35.262 112.111C35.2511 112.039 35.1835 111.99 35.112 112.001C35.0401 112.012 34.9908 112.08 35.0017 112.151Z" fill="#C17033"/>
<path d="M38.6418 124.48L36.9183 124.486L36.876 111.49L38.5991 111.483L38.6418 124.48Z" fill="#F7E152"/>
<path d="M38.5996 111.484L36.8756 111.49L37.4394 110.258L37.7315 109.621L38.0275 110.257L38.5996 111.484Z" fill="#EAAB7A"/>
<path d="M38.6418 124.48L36.9183 124.486L36.9153 123.541L38.6388 123.536L38.6418 124.48Z" fill="#3B3A39"/>
<path d="M38.5298 125.233L37.0348 125.238C36.9715 125.238 36.9201 125.187 36.9201 125.124L36.9179 124.485L38.6423 124.48L38.644 125.118C38.6445 125.182 38.593 125.233 38.5298 125.233Z" fill="#DF955D"/>
<path d="M38.0275 110.256L37.4398 110.258L37.7314 109.621L38.0275 110.256Z" fill="#3B3A39"/>
<path d="M36.9131 122.864L38.637 122.859L38.6388 123.536L36.9153 123.541L36.9131 122.864Z" fill="#7C4821"/>
<path d="M37.3059 112.128L37.3377 121.753C37.3382 121.826 37.3966 121.885 37.4694 121.884C37.5422 121.884 37.6011 121.825 37.6006 121.752L37.5697 112.127C37.5697 112.055 37.51 111.996 37.4371 111.996C37.3643 111.997 37.3059 112.056 37.3059 112.128Z" fill="#7C4821"/>
<path d="M37.9804 112.126L38.0122 121.75C38.0127 121.823 38.0711 121.882 38.1439 121.881C38.2167 121.881 38.2756 121.821 38.2751 121.749L38.2442 112.125C38.2442 112.052 38.1845 111.993 38.1116 111.993C38.0388 111.994 37.9804 112.053 37.9804 112.126Z" fill="#7C4821"/>
<path d="M39.7458 124.534L38.0393 124.291L39.8675 111.425L41.5735 111.667L39.7458 124.534Z" fill="#F7D707"/>
<path d="M41.574 111.667L39.8666 111.425L40.6021 110.288L40.9827 109.698L41.1842 110.37L41.574 111.667Z" fill="#EAAB7A"/>
<path d="M39.7458 124.534L38.0388 124.292L38.1718 123.357L39.8787 123.599L39.7458 124.534Z" fill="#3B3A39"/>
<path d="M39.5265 125.263L38.0463 125.053C37.9835 125.044 37.9403 124.986 37.9495 124.923L38.0388 124.291L39.7454 124.534L39.656 125.166C39.6473 125.228 39.5893 125.272 39.5265 125.263Z" fill="#DF955D"/>
<path d="M41.1846 110.37L40.6021 110.288L40.9827 109.698L41.1846 110.37Z" fill="#3B3A39"/>
<path d="M38.2673 122.687L39.9738 122.929L39.8787 123.6L38.1722 123.357L38.2673 122.687Z" fill="#AA5F26"/>
<path d="M40.2014 112.119L38.8477 121.648C38.8376 121.72 38.8878 121.787 38.9597 121.797C39.0316 121.807 39.0984 121.757 39.1084 121.685L40.4622 112.156C40.4726 112.084 40.422 112.018 40.3501 112.007C40.2782 111.997 40.2115 112.047 40.2014 112.119Z" fill="#AA5F26"/>
<path d="M40.8689 112.213L39.5156 121.742C39.5051 121.814 39.5553 121.881 39.6272 121.891C39.6992 121.901 39.7659 121.851 39.7763 121.779L41.1297 112.25C41.1401 112.178 41.09 112.112 41.0176 112.101C40.9457 112.091 40.879 112.141 40.8689 112.213Z" fill="#AA5F26"/>
<path d="M42.1337 116.624L42.0435 117.322L41.9615 117.955L41.8377 118.916L41.757 119.542L41.6319 120.512L41.5517 121.13L41.4261 122.107L41.3472 122.716L41.2194 123.701L41.1423 124.303L41.0145 125.297L40.9374 125.892L40.8706 126.406H34.0961L34.0302 125.892L33.9531 125.297L33.8245 124.303L33.7482 123.701L33.6204 122.716L33.5415 122.107L33.4155 121.13L33.3348 120.512L33.2106 119.542L33.1299 118.916L33.0056 117.955L32.9232 117.322L32.8339 116.624H42.1337Z" fill="#DF955D"/>
<path d="M42.0435 117.322L41.962 117.955H33.0057L32.9241 117.322H42.0435Z" fill="#FF7000"/>
<path d="M41.8373 118.916L41.7571 119.542H33.2102L33.1295 118.916H41.8373Z" fill="#FF7000"/>
<path d="M41.6319 120.512L41.5517 121.13H33.4151L33.3348 120.512H41.6319Z" fill="#FF7000"/>
<path d="M41.4261 122.107L41.3468 122.716H33.6204L33.5415 122.107H41.4261Z" fill="#FF7000"/>
<path d="M41.2195 123.702L41.1423 124.304H33.8253L33.7482 123.702H41.2195Z" fill="#FF7000"/>
<path d="M41.0141 125.297L40.9369 125.891H34.0298L33.9526 125.297H41.0141Z" fill="#FF7000"/>
<path d="M55.8551 91.6162C55.8551 94.7681 53.3001 97.323 50.1483 97.323C46.9964 97.323 44.4406 94.7681 44.4406 91.6162C44.4406 88.4644 46.9964 85.9094 50.1483 85.9094C53.3001 85.9094 55.8551 88.4644 55.8551 91.6162Z" fill="#EAAB7A"/>
<path d="M62.8572 81.7986C62.8572 81.7986 57.7855 80.1914 56.9581 74.7766C56.1705 69.6204 57.5569 67.1632 59.3331 64.6453C60.6711 62.7488 64.4649 60.4277 69.1999 62.001C73.9806 63.5892 77.338 66.5496 77.3905 70.6454C77.4879 78.309 70.2875 86.7689 62.8572 81.7986Z" fill="#3B3A39"/>
<path d="M57.1069 75.6133C57.013 75.6019 56.9276 75.5419 56.8884 75.4484C56.8145 75.2721 55.1066 71.0798 57.5477 66.1321C59.0723 63.0426 61.4789 61.8693 63.23 61.4284C65.122 60.9519 66.6366 61.2031 66.7007 61.2139C66.8491 61.2394 66.9484 61.3802 66.9229 61.5286C66.8975 61.6766 66.7592 61.7771 66.6086 61.7513C66.594 61.7487 65.126 61.5084 63.3422 61.962C60.9678 62.5661 59.1828 64.0499 58.0366 66.3738C55.7097 71.0898 57.374 75.1969 57.391 75.2376C57.4488 75.3764 57.3833 75.5362 57.2449 75.594C57.1996 75.6127 57.1523 75.6188 57.1069 75.6133Z" fill="#FF8E3A"/>
<path d="M73.5692 77.6991C73.5692 77.6991 75.4201 76.5702 75.6497 78.3905C75.8793 80.2103 74.2454 83.1975 72.3954 82.0048L73.5692 77.6991Z" fill="#D99662"/>
<path d="M71.5266 80.7433C70.6545 80.9193 69.8204 81.5708 69.5206 82.4734C69.0754 83.8138 69.8037 85.2669 71.144 85.7125C72.4849 86.1577 73.9383 85.4295 74.3835 84.0891C74.7172 83.0852 74.3922 82.018 73.6452 81.3589C73.395 81.1375 73.097 80.9621 72.7601 80.85C72.7516 80.8472 72.7439 80.8459 72.7355 80.8431C72.666 81.0103 72.6694 81.1522 72.755 81.2719C73.0235 81.3788 73.2606 81.5353 73.4581 81.728C74.0348 82.2882 74.2761 83.1507 74.0061 83.9638C73.6297 85.096 72.4024 85.7116 71.2698 85.3351C70.1371 84.9591 69.522 83.731 69.8984 82.5988C70.1718 81.776 70.8683 81.2527 71.6782 81.1587L71.5266 80.7433Z" fill="#FF8E3A"/>
<path d="M75.3343 76.8317C75.1836 77.2881 75.0399 77.7222 74.9002 78.1348C74.7506 78.5826 74.6062 79.0047 74.4662 79.4014C73.4254 82.3806 72.6745 83.9523 71.7075 84.4581C66.8171 87.0137 60.2337 79.836 60.022 79.6048L60.0166 79.5984C60.0544 79.2371 60.0978 78.8796 60.1478 78.5295C60.5639 75.5592 61.3958 72.9477 62.5009 70.571C63.2304 67.9198 65.5878 66.0092 68.3359 65.9292C71.1835 65.8482 73.0904 67.7224 74.3187 68.5984C76.1734 69.9226 76.586 73.0238 75.3343 76.8317Z" fill="#EAAB7A"/>
<path d="M62.9929 67.8141C62.9929 67.8141 66.8895 62.1223 72.9859 64.583C79.0823 67.0433 79.0614 70.0116 78.9949 71.4884C78.9279 72.9657 75.8681 69.9632 75.8681 69.9632C75.8681 69.9632 75.3971 72.8759 74.3817 71.8373C73.1366 70.564 71.8831 67.9895 71.8831 67.9895C71.8831 67.9895 67.6817 71.2226 64.2356 69.7948C62.2786 68.9835 62.9929 67.8141 62.9929 67.8141Z" fill="#3B3A39"/>
<path d="M69.1112 82.1229C68.2919 82.0234 67.8001 81.3896 67.7751 81.3567C67.699 81.2566 67.7184 81.1144 67.8181 81.0387C67.9178 80.963 68.0599 80.9829 68.1357 81.0821C68.1618 81.116 68.7337 81.8395 69.6262 81.6509C69.7488 81.625 69.8693 81.7033 69.8953 81.8259C69.9208 81.9485 69.8425 82.0685 69.7199 82.0945C69.5012 82.1409 69.2978 82.1456 69.1112 82.1229Z" fill="#D99662"/>
<path d="M67.6709 78.2147C67.6709 78.2147 70.6007 79.485 72.1771 79.6764C72.1771 79.6764 71.1151 81.8317 68.9593 80.7701C67.2817 79.944 67.6709 78.2147 67.6709 78.2147Z" fill="#FEF5BD"/>
<path d="M68.6221 76.7544C68.5051 77.1065 67.6845 77.1513 66.7896 76.8538C65.8945 76.5567 65.2637 76.0299 65.3807 75.6773C65.4977 75.3253 66.3182 75.2813 67.2132 75.5784C68.1082 75.876 68.7391 76.4023 68.6221 76.7544Z" fill="#D99662"/>
<path d="M74.9007 78.1349C74.7509 78.5832 74.6066 79.0048 74.4667 79.4011C73.6567 79.0985 73.1052 78.6121 73.2154 78.2803C73.3265 77.9472 74.0652 77.8903 74.9007 78.1349Z" fill="#D99662"/>
<path d="M71.5797 77.6336C71.8115 77.7105 71.9807 77.7236 71.9951 77.7249C72.0539 77.7289 72.1117 77.7083 72.1544 77.6678C72.1971 77.6273 72.221 77.5718 72.2198 77.5128L72.1839 75.1574C72.1826 75.0417 72.0874 74.9498 71.9713 74.9511C71.8556 74.9528 71.7633 75.0479 71.765 75.1636L71.7967 77.2607C71.5936 77.204 71.2902 77.0806 71.0392 76.8147C70.9594 76.7303 70.8269 76.7261 70.7425 76.8055C70.6582 76.8848 70.6544 77.0179 70.7342 77.1018C71.0105 77.3949 71.3311 77.5507 71.5797 77.6336Z" fill="#3B3A39"/>
<path d="M62.2489 78.1645C62.2077 78.2109 61.0813 79.4756 60.0225 79.6048C60.0225 79.6048 60.0211 79.6051 60.0202 79.605C60.0181 79.6008 60.0171 79.5985 60.0171 79.5985C60.0544 79.2367 60.0986 78.8802 60.1477 78.5299C60.1839 78.5357 61.1615 78.6812 62.2489 78.1645Z" fill="#3B3A39"/>
<path d="M62.4788 74.5097C62.4788 74.5097 61.4077 71.2683 59.3117 72.8395C57.5843 74.134 58.3355 79.2533 61.1469 78.5191L62.4788 74.5097Z" fill="#EAAB7A"/>
<path d="M58.6044 76.7214C57.7323 76.897 56.8986 77.549 56.5988 78.4516C56.1531 79.7919 56.8814 81.245 58.2218 81.6902C59.5626 82.1359 61.0161 81.4076 61.4613 80.0672C61.7949 79.0633 61.47 77.9961 60.723 77.3366C60.4728 77.1152 60.1748 76.9398 59.8379 76.8281C59.8299 76.8254 59.8217 76.824 59.8137 76.8212C59.7442 76.9885 59.7476 77.1299 59.8327 77.25C60.1017 77.3569 60.3383 77.5135 60.5359 77.7057C61.113 78.2663 61.354 79.1283 61.0839 79.9419C60.7074 81.0741 59.4802 81.6897 58.3476 81.3132C57.2153 80.9368 56.6003 79.7088 56.9762 78.5769C57.2497 77.7537 57.9461 77.2304 58.7564 77.1369L58.6044 76.7214Z" fill="#FF8E3A"/>
<path d="M61.1424 77.6485C61.1496 77.6507 61.1567 77.6534 61.164 77.6547C61.2774 77.6794 61.3894 77.6074 61.4137 77.4939C61.9062 75.2036 60.3008 73.8197 60.2323 73.7617C60.1434 73.6873 60.0111 73.6989 59.9366 73.7878C59.8622 73.8762 59.8729 74.008 59.9614 74.0824C60.0219 74.1341 61.4414 75.3672 61.0033 77.4055C60.9808 77.5108 61.0423 77.6153 61.1424 77.6485Z" fill="#3B3A39"/>
<path d="M59.6858 75.8241C59.7297 75.8387 59.7784 75.8389 59.8253 75.8213C60.0453 75.7386 60.6853 75.5682 60.9994 75.7702C61.0968 75.8325 61.2263 75.8043 61.289 75.707C61.3518 75.6096 61.3232 75.4797 61.2259 75.4169C60.6779 75.0653 59.7779 75.3908 59.677 75.4295C59.5684 75.4703 59.5138 75.5911 59.5551 75.6993C59.5784 75.7606 59.628 75.8048 59.6858 75.8241Z" fill="#3B3A39"/>
<path d="M64.9732 69.5365C64.9732 69.5365 62.3899 74.5771 62.1547 75.6272C61.8338 77.0587 60.5212 71.8598 62.9648 67.8507L64.9732 69.5365Z" fill="#3B3A39"/>
<path d="M74.0805 72.5737C74.0805 72.5737 73.3004 72.3977 73.336 73.1781C73.3713 73.9584 75.1395 73.6984 75.7999 75.3338C75.7999 75.3338 76.8126 73.8265 74.0805 72.5737Z" fill="#3B3A39"/>
<path d="M70.6584 71.4369C70.6584 71.4369 71.3887 71.7632 70.8934 72.3667C70.3984 72.9707 69.1366 71.7045 67.6292 72.6199C67.6292 72.6199 67.7071 71.0636 70.0533 71.3353C70.2403 71.3572 70.4418 71.3904 70.6584 71.4369Z" fill="#3B3A39"/>
<path d="M63.2339 120.668C61.8999 120.434 60.8019 119.647 60.1346 118.584L59.9795 118.334L45.2481 94.6317C43.5922 91.9674 44.4102 88.4654 47.0741 86.8096C49.7384 85.1537 53.2407 85.9711 54.8966 88.6354C54.9484 88.719 55.0069 88.8198 55.0542 88.9053L68.4583 113.382L63.2339 120.668Z" fill="#EAAB7A"/>
<path d="M69.2734 115.117C69.8931 117.716 68.2889 120.325 65.6899 120.945C63.091 121.564 60.4821 119.96 59.8624 117.361C59.2427 114.762 60.8467 112.153 63.4457 111.533C66.0446 110.913 68.6537 112.518 69.2734 115.117Z" fill="#EAAB7A"/>
<path d="M55.6549 90.3286C56.3859 93.3944 54.4933 96.4723 51.4274 97.2034C48.3615 97.9345 45.2828 96.042 44.5517 92.9761C43.8206 89.9102 45.7142 86.8321 48.78 86.1011C51.8459 85.37 54.9238 87.2627 55.6549 90.3286Z" fill="#EAAB7A"/>
<path d="M69.1542 114.187C70.0373 116.719 68.7005 119.488 66.1682 120.371C63.6359 121.254 60.8674 119.917 59.9843 117.385C59.1014 114.853 60.438 112.084 62.9703 111.201C65.5026 110.318 68.2712 111.655 69.1542 114.187Z" fill="#EAAB7A"/>
<path d="M60.7493 118.714L60.9296 118.947C61.701 119.937 62.8722 120.609 64.223 120.706C66.3329 120.858 68.3748 120.675 70.2753 120.307C72.1795 119.937 73.955 119.389 75.6342 118.762C77.3137 118.134 78.8996 117.425 80.43 116.685C81.96 115.944 83.4343 115.172 84.8778 114.395C86.7938 113.357 87.6291 110.994 86.7245 108.972C85.7756 106.851 83.2863 105.9 81.1654 106.849L81.1579 106.853C79.7202 107.496 78.2977 108.112 76.8899 108.67C75.4826 109.227 74.089 109.726 72.7243 110.124C71.3605 110.522 70.0251 110.816 68.7582 110.962C67.4904 111.108 66.2979 111.103 65.2093 110.936L60.7493 118.714Z" fill="#EAAB7A"/>
<path d="M69.4878 75.0187C69.3271 75.5026 68.9769 75.8219 68.7059 75.7319C68.4353 75.642 68.3459 75.177 68.5071 74.6928C68.6677 74.209 69.0179 73.89 69.2885 73.9796C69.5596 74.0696 69.6484 74.5349 69.4878 75.0187Z" fill="#3B3A39"/>
<path d="M74.2751 76.6094C74.1145 77.0933 73.7643 77.4126 73.4932 77.3226C73.2226 77.2327 73.1333 76.7677 73.2944 76.2835C73.4551 75.7997 73.8052 75.4807 74.0759 75.5703C74.3469 75.6603 74.4358 76.1256 74.2751 76.6094Z" fill="#3B3A39"/>
<path d="M77.5629 78.0827L75.1587 77.366C75.1331 77.4683 75.0965 77.5671 75.0603 77.6668C75.0542 77.684 75.0457 77.6997 75.0365 77.7144L77.4576 78.4358C77.5551 78.4652 77.658 78.4096 77.687 78.3121C77.7164 78.2147 77.6658 78.1101 77.5629 78.0827Z" fill="#FEF5BD"/>
<path d="M71.265 75.1903C71.2816 75.0645 71.2893 74.9394 71.2883 74.8141C71.2885 74.14 71.069 73.4879 70.6746 72.9564C70.3144 72.4687 69.8107 72.0807 69.1974 71.8688C69.1874 71.8645 69.1783 71.8603 69.1676 71.8577C67.7671 71.3867 66.2608 71.9711 65.5192 73.1806C65.4547 73.2852 65.3963 73.3932 65.3456 73.5074C65.2984 73.6066 65.2581 73.7102 65.222 73.8161C64.9581 74.6005 65.025 75.4168 65.3466 76.1133C65.4562 76.3506 65.5958 76.5749 65.7611 76.7763C66.1193 77.2195 66.6028 77.5672 67.18 77.7616C68.153 78.0889 69.1752 77.9073 69.9582 77.362C70.4864 76.994 70.9053 76.4594 71.126 75.8037C71.1263 75.8011 71.128 75.7978 71.1283 75.7952C71.1948 75.5951 71.2408 75.393 71.265 75.1903ZM67.2984 77.4119C67.2832 77.407 67.2697 77.4023 67.2547 77.3961C66.5001 77.1283 65.9335 76.561 65.6434 75.8722C65.3933 75.2775 65.3503 74.5937 65.5713 73.9345C65.6172 73.7986 65.6735 73.668 65.7377 73.544C65.7426 73.5363 65.7466 73.5289 65.7502 73.521C66.2565 72.567 67.2793 72.0039 68.3413 72.0692C68.5772 72.0833 68.8151 72.1276 69.0496 72.207C69.5543 72.3768 69.9774 72.6798 70.2929 73.0656C70.8736 73.7734 71.089 74.7557 70.7761 75.6861C70.2936 77.1204 68.7334 77.8958 67.2984 77.4119Z" fill="#FEF5BD"/>
<path d="M76.9168 74.5933C76.8386 74.539 76.7581 74.4892 76.674 74.4408C76.5748 74.3853 76.4715 74.3358 76.3649 74.2913C76.2915 74.2591 76.2172 74.2307 76.1401 74.2042C75.9987 74.1563 75.8551 74.12 75.7139 74.0936C75.5408 74.0612 75.3676 74.0441 75.1953 74.0421C74.7179 74.0346 74.2507 74.1386 73.8279 74.3358C73.3624 74.5529 72.9508 74.8855 72.6404 75.3081C72.5593 75.4151 72.4866 75.5292 72.4203 75.6481C72.4169 75.6547 72.4136 75.66 72.4115 75.6668C72.3258 75.8224 72.2524 75.9892 72.1944 76.1631C71.8023 77.3268 72.1401 78.5633 72.9588 79.3734C73.2246 79.6367 73.5415 79.8552 73.9015 80.0118C73.9557 80.0355 74.0114 80.0581 74.0679 80.0773C74.095 80.0893 74.1237 80.099 74.1524 80.1086C74.4436 80.2059 74.7393 80.2594 75.032 80.2686C75.0791 80.2712 75.1261 80.2717 75.1722 80.2711C75.3016 80.2693 75.4304 80.2612 75.5577 80.2437C75.7961 80.212 76.0281 80.1528 76.2501 80.0682C77.0916 79.7466 77.7897 79.068 78.0984 78.1503C78.5511 76.8059 78.0288 75.3634 76.9168 74.5933ZM77.7487 78.0318C77.7294 78.0892 77.7089 78.146 77.6852 78.2002C77.6536 78.2798 77.6179 78.3563 77.5772 78.4313C77.292 78.9786 76.8352 79.3983 76.2977 79.6471C76.1003 79.7391 75.8919 79.8064 75.677 79.8506C75.5425 79.8769 75.406 79.8941 75.2678 79.8997C75.2272 79.9014 75.1885 79.902 75.1482 79.901C74.8565 79.902 74.5607 79.8565 74.2695 79.7592C74.243 79.7494 74.2168 79.7405 74.1903 79.7311C74.1744 79.7248 74.1585 79.7185 74.1424 79.7134C73.7183 79.546 73.3566 79.2833 73.0753 78.9562C73.0331 78.9094 72.993 78.8601 72.9553 78.809C72.4287 78.1104 72.2436 77.1722 72.5437 76.281C72.6115 76.0811 72.7002 75.8929 72.8056 75.7199C73.1515 75.1571 73.6843 74.7484 74.2913 74.5489C74.667 74.425 75.0715 74.3815 75.4789 74.4301C75.5441 74.4389 75.6096 74.4494 75.6766 74.4615C75.7915 74.4847 75.9068 74.5154 76.0216 74.5544C76.1046 74.5829 76.1857 74.6134 76.2636 74.6483C76.3731 74.6972 76.4772 74.7516 76.5773 74.8138C76.6568 74.8608 76.7342 74.9141 76.8073 74.97C77.7188 75.6635 78.1341 76.8875 77.7487 78.0318Z" fill="#FEF5BD"/>
<path d="M61.5417 73.2614C61.521 73.2545 61.5011 73.2442 61.4832 73.2293C61.4046 73.1644 61.3937 73.048 61.4581 72.9693C62.9206 71.1978 65.6656 73.2809 65.6929 73.3022C65.7736 73.3643 65.7885 73.4807 65.726 73.5614C65.6644 73.6418 65.5483 73.6571 65.4676 73.5946C65.4431 73.5758 62.9781 71.7076 61.7427 73.2046C61.6927 73.2653 61.6121 73.2854 61.5417 73.2614Z" fill="#FEF5BD"/>
<path d="M72.5433 75.7707C72.4986 75.7556 72.4591 75.7231 72.4366 75.6769C72.1173 75.0224 71.2429 75.192 71.2343 75.194C71.1348 75.214 71.0372 75.1499 71.0168 75.0503C70.9964 74.9504 71.061 74.8528 71.1604 74.8328C71.5617 74.7511 72.4132 74.7882 72.7681 75.5151C72.8123 75.6066 72.7748 75.7167 72.6833 75.7613C72.6379 75.7839 72.5877 75.7853 72.5433 75.7707Z" fill="#FEF5BD"/>
<path d="M110.648 81.937L96.4537 81.9279C95.9035 81.9274 95.4569 81.4809 95.4573 80.9302L95.4639 72.2091C95.4643 71.6589 95.9109 71.2132 96.4611 71.2136L110.655 71.2232C111.205 71.2236 111.651 71.6702 111.651 72.2204L111.645 80.9415C111.645 81.4922 111.198 81.9375 110.648 81.937Z" fill="#DF955D"/>
<path d="M109.802 80.3273L108.507 85.2154L106.245 80.6205L109.802 80.3273Z" fill="#DF955D"/>
<path d="M107.139 75.7833C106.85 77.6149 103.432 79.9064 103.432 79.9064C103.432 79.9064 100.142 77.6101 99.9547 75.7781C99.7517 73.7924 102.103 73.185 103.578 74.6829C105.136 73.1872 107.453 73.7976 107.139 75.7833Z" fill="#FEF5BD"/>
<path d="M125.47 91.8513L119.692 116.283L119.54 116.925L119.152 118.571C118.984 119.284 118.349 119.787 117.616 119.787H78.6985C77.68 119.787 76.9274 118.835 77.162 117.845L83.4801 91.1254C83.6479 90.4134 84.2832 89.9111 85.0152 89.9111H123.933C124.952 89.9111 125.704 90.8612 125.47 91.8513Z" fill="#3B3A39"/>
<path d="M119.693 116.283L119.54 116.926H79.1309V116.283H119.693Z" fill="#5A5958"/>
<path d="M94.3827 95.9567C94.0596 97.6885 92.3932 99.092 90.6619 99.092C88.9301 99.092 87.7882 97.6885 88.1113 95.9567C88.4343 94.2249 90.1007 92.8214 91.8321 92.8214C93.5643 92.8214 94.7058 94.2249 94.3827 95.9567Z" fill="#FF8E3A"/>
<path d="M90.841 95.3572C90.7765 95.7034 90.6012 95.9842 90.4508 95.9842C90.3004 95.9842 90.2306 95.7034 90.2952 95.3572C90.3597 95.011 90.5341 94.7302 90.685 94.7302C90.8354 94.7302 90.9056 95.011 90.841 95.3572Z" fill="#3B3A39"/>
<path d="M92.4769 95.3572C92.4124 95.7034 92.2375 95.9842 92.0867 95.9842C91.9363 95.9842 91.8665 95.7034 91.931 95.3572C91.9956 95.011 92.17 94.7302 92.3208 94.7302C92.4712 94.7302 92.5414 95.011 92.4769 95.3572Z" fill="#3B3A39"/>
<path d="M90.9893 97.4839C89.6407 97.4839 89.5836 96.1358 89.5832 96.1223C89.581 96.0486 89.6412 95.9762 89.7175 95.9601C89.7942 95.944 89.8583 95.9906 89.8605 96.0643C89.8622 96.1131 89.915 97.2114 91.0403 97.2114C92.1665 97.2114 92.6286 96.111 92.6478 96.0643C92.6779 95.9906 92.7594 95.9444 92.8296 95.9601C92.8998 95.9762 92.933 96.0486 92.9033 96.1223C92.8977 96.1358 92.3378 97.4839 90.9893 97.4839Z" fill="#3B3A39"/>
<path d="M112.373 110.596C112.407 112.218 115.155 114.249 115.155 114.249C115.155 114.249 118.347 112.218 118.735 110.596C119.155 108.838 117.147 108.298 115.66 109.624C114.463 108.298 112.336 108.838 112.373 110.596Z" fill="#DF955D"/>
<path d="M106.56 105.894C106.374 107.575 104.861 108.939 103.179 108.939C101.497 108.939 100.284 107.575 100.47 105.894C100.655 104.212 102.168 102.849 103.85 102.849C105.532 102.849 106.745 104.212 106.56 105.894Z" fill="#5A5958"/>
<path d="M86.5578 89.9106L79.8308 119.786H78.6985C77.68 119.786 76.9274 118.836 77.162 117.846L83.4792 91.1253C83.6479 90.4134 84.2836 89.9106 85.0157 89.9106H86.5578Z" fill="#5A5958"/>
<path d="M97.831 119.786L96.6498 126.426H100.549L101.73 119.786H97.831Z" fill="#FEF5BD"/>
<path d="M90.8136 125.283L91.6123 124.161C91.897 123.76 92.3583 123.522 92.8501 123.522H103.541C104.107 123.522 104.626 123.836 104.888 124.337L105.427 125.367C105.678 125.848 105.329 126.425 104.786 126.425H91.4031C90.8153 126.425 90.4731 125.762 90.8136 125.283Z" fill="#FEF5BD"/>
<path d="M68.5383 126.422H100.655L101.003 125.211C101.223 124.448 100.65 123.688 99.8575 123.688H70.2226C69.6911 123.688 69.2237 124.04 69.0768 124.551L68.5383 126.422Z" fill="#FEF5BD"/>
<path d="M281.016 129.95C281.016 129.95 268.605 126.725 265.619 117.756C262.633 108.788 275.834 102.975 282.31 108.079C289.238 113.539 281.016 129.95 281.016 129.95Z" fill="#F7E152"/>
<path d="M287.123 153.409C287.012 153.402 286.919 153.315 286.909 153.202C286.187 144.993 282.031 132.997 278.672 124.38C275.028 115.036 271.511 107.542 271.476 107.468C271.422 107.354 271.471 107.219 271.584 107.165C271.699 107.112 271.834 107.161 271.888 107.274C271.923 107.349 275.446 114.856 279.095 124.215C282.466 132.86 286.636 144.899 287.363 153.162C287.373 153.287 287.281 153.398 287.156 153.408C287.145 153.41 287.133 153.409 287.123 153.409Z" fill="#3B3A39"/>
<path d="M280.595 129.074C280.514 129.07 280.438 129.021 280.402 128.943C275.541 118.446 267.108 110.541 267.024 110.462C266.932 110.377 266.926 110.232 267.012 110.14C267.097 110.049 267.241 110.043 267.333 110.129C267.419 110.208 275.916 118.171 280.815 128.751C280.868 128.865 280.818 129.001 280.704 129.054C280.669 129.07 280.631 129.077 280.595 129.074Z" fill="#3B3A39"/>
<path d="M280.8 129.817C280.736 129.813 280.673 129.783 280.632 129.727C276.925 124.802 273.018 121.646 270.393 119.866C267.548 117.936 265.553 117.161 265.534 117.153C265.416 117.108 265.358 116.977 265.403 116.859C265.448 116.742 265.579 116.683 265.696 116.728C265.779 116.76 267.748 117.524 270.634 119.479C273.292 121.28 277.247 124.472 280.995 129.454C281.071 129.554 281.051 129.696 280.95 129.772C280.905 129.806 280.852 129.82 280.8 129.817Z" fill="#3B3A39"/>
<path d="M279.853 127.085C279.758 127.08 279.673 127.015 279.647 126.918C277.116 117.751 278.889 106.897 278.907 106.788C278.928 106.664 279.044 106.58 279.169 106.601C279.293 106.622 279.377 106.739 279.356 106.863C279.338 106.971 277.582 117.729 280.085 126.798C280.119 126.918 280.048 127.044 279.926 127.077C279.901 127.084 279.877 127.087 279.853 127.085Z" fill="#3B3A39"/>
<path d="M280.518 128.91C280.408 128.903 280.317 128.818 280.305 128.706C279.705 122.962 280.699 118.365 281.639 115.519C282.66 112.429 283.808 110.723 283.857 110.652C283.927 110.548 284.069 110.521 284.172 110.592C284.276 110.663 284.304 110.804 284.233 110.908C284.221 110.925 283.066 112.645 282.065 115.68C281.143 118.48 280.166 123.004 280.758 128.659C280.771 128.784 280.68 128.896 280.555 128.909C280.543 128.91 280.53 128.91 280.518 128.91Z" fill="#3B3A39"/>
<path d="M288.622 116.164C288.622 116.164 278.037 108.927 278.265 99.4766C278.494 90.0265 292.884 89.0293 297.248 96.0247C301.916 103.509 288.622 116.164 288.622 116.164Z" fill="#F7E152"/>
<path d="M286.505 140.324C286.488 140.323 286.47 140.32 286.452 140.316C286.331 140.284 286.258 140.16 286.29 140.038C288.392 132.071 288.544 119.376 288.302 110.13C288.039 100.104 287.269 91.8629 287.261 91.7807C287.249 91.6556 287.341 91.5442 287.466 91.5325C287.59 91.5212 287.702 91.6126 287.714 91.7376C287.722 91.8198 288.494 100.077 288.757 110.118C289 119.394 288.846 132.134 286.731 140.154C286.703 140.258 286.608 140.326 286.505 140.324Z" fill="#3B3A39"/>
<path d="M288.606 115.217C288.492 115.214 288.396 115.125 288.385 115.009C287.368 103.487 282.111 93.192 282.058 93.0895C282 92.9777 282.044 92.8405 282.156 92.7827C282.267 92.7249 282.405 92.769 282.462 92.8803C282.516 92.9837 287.813 103.355 288.839 114.969C288.85 115.094 288.757 115.205 288.632 115.216C288.623 115.217 288.615 115.217 288.606 115.217Z" fill="#3B3A39"/>
<path d="M288.547 115.985C288.452 115.983 288.365 115.92 288.336 115.825C286.517 109.936 283.91 105.643 282.043 103.078C280.02 100.299 278.406 98.894 278.389 98.8801C278.294 98.7979 278.284 98.6546 278.366 98.5594C278.448 98.4642 278.591 98.4534 278.687 98.5352C278.753 98.5928 280.348 99.9791 282.401 102.796C284.291 105.391 286.931 109.734 288.77 115.691C288.807 115.811 288.74 115.938 288.62 115.976C288.596 115.983 288.571 115.986 288.547 115.985Z" fill="#3B3A39"/>
<path d="M288.582 113.093L288.571 113.093C288.445 113.083 288.351 112.974 288.36 112.849C289.085 103.366 294.429 93.7534 294.483 93.6575C294.545 93.5479 294.684 93.5095 294.793 93.5707C294.902 93.6324 294.942 93.7712 294.88 93.8808C294.827 93.9759 289.531 103.503 288.814 112.883C288.805 113.004 288.702 113.096 288.582 113.093Z" fill="#3B3A39"/>
<path d="M288.59 115.035C288.574 115.035 288.557 115.033 288.541 115.029C288.419 114.999 288.344 114.875 288.374 114.753C289.755 109.146 292.257 105.126 294.112 102.74C296.126 100.151 297.791 98.9061 297.861 98.8542C297.962 98.7795 298.105 98.8006 298.18 98.9019C298.255 99.0028 298.233 99.1454 298.132 99.2204C298.115 99.2327 296.437 100.489 294.46 103.035C292.636 105.383 290.176 109.341 288.817 114.862C288.791 114.968 288.695 115.038 288.59 115.035Z" fill="#3B3A39"/>
<path d="M292.026 132.484C292.026 132.484 304.647 130.212 308.306 121.496C311.966 112.781 299.244 105.98 292.399 110.577C285.077 115.495 292.026 132.484 292.026 132.484Z" fill="#F7E152"/>
<path d="M288.054 152.689L288.051 152.689C287.925 152.693 287.82 152.594 287.817 152.469C287.69 148.272 288.403 143.456 289.937 138.152C291.162 133.917 292.91 129.362 295.133 124.614C298.918 116.534 302.822 110.613 302.861 110.554C302.931 110.449 303.072 110.421 303.176 110.49C303.281 110.56 303.31 110.702 303.241 110.806C303.202 110.865 299.313 116.762 295.543 124.813C292.069 132.233 287.987 143.052 288.272 152.455C288.276 152.58 288.179 152.684 288.054 152.689Z" fill="#3B3A39"/>
<path d="M292.526 131.643C292.485 131.645 292.443 131.636 292.405 131.615C292.294 131.554 292.255 131.415 292.317 131.305C298.007 121.128 307.085 113.833 307.176 113.761C307.274 113.682 307.418 113.698 307.496 113.797C307.574 113.895 307.558 114.038 307.46 114.116C307.37 114.188 298.359 121.431 292.714 131.527C292.674 131.599 292.602 131.64 292.526 131.643Z" fill="#3B3A39"/>
<path d="M292.265 132.369C292.208 132.371 292.151 132.353 292.105 132.312C292.011 132.229 292.002 132.085 292.085 131.991C296.201 127.309 300.387 124.426 303.174 122.833C306.2 121.102 308.222 120.49 308.306 120.465C308.426 120.429 308.554 120.498 308.59 120.618C308.626 120.739 308.557 120.866 308.437 120.901C308.416 120.908 306.368 121.529 303.384 123.237C300.631 124.813 296.496 127.663 292.426 132.292C292.383 132.34 292.325 132.366 292.265 132.369Z" fill="#3B3A39"/>
<path d="M293.418 129.716C293.389 129.717 293.36 129.713 293.331 129.703C293.213 129.66 293.151 129.53 293.194 129.411C296.379 120.56 295.447 109.7 295.437 109.591C295.426 109.466 295.519 109.355 295.643 109.344C295.767 109.332 295.879 109.425 295.891 109.55C295.901 109.659 296.842 120.618 293.622 129.566C293.59 129.655 293.508 129.712 293.418 129.716Z" fill="#3B3A39"/>
<path d="M292.616 131.485C292.6 131.486 292.582 131.485 292.565 131.481C292.441 131.459 292.36 131.34 292.382 131.216C293.402 125.624 292.772 121.038 292.065 118.177C291.298 115.074 290.277 113.271 290.267 113.253C290.204 113.144 290.242 113.005 290.351 112.942C290.46 112.88 290.599 112.918 290.662 113.027C290.704 113.101 291.72 114.89 292.503 118.048C293.224 120.957 293.865 125.617 292.83 131.298C292.81 131.405 292.72 131.481 292.616 131.485Z" fill="#3B3A39"/>
<path d="M312.101 202.127C312.101 203.446 301.272 204.516 287.913 204.516C274.555 204.516 263.726 203.446 263.726 202.127C263.726 200.806 274.555 199.736 287.913 199.736C301.272 199.736 312.101 200.806 312.101 202.127Z" fill="#E4E1CC"/>
<path d="M302.722 184.847H272.187C271.606 184.847 271.136 184.377 271.136 183.796V183.313C271.136 182.732 271.606 182.262 272.187 182.262H302.722C303.303 182.262 303.773 182.732 303.773 183.313V183.796C303.773 184.377 303.303 184.847 302.722 184.847Z" fill="#3B3A39"/>
<path d="M272.57 153.618H302.404C302.9 153.618 303.302 154.02 303.302 154.517V158.182C303.302 158.678 302.9 159.079 302.404 159.079H272.57C272.074 159.079 271.672 158.678 271.672 158.182V154.517C271.672 154.02 272.074 153.618 272.57 153.618Z" fill="#5A5958"/>
<path d="M301.145 139.105L300.769 140.1L300.533 140.731L299.852 142.538L299.614 143.169L298.915 145.025L298.677 145.655L295.679 153.618H279.296L276.297 145.655L276.06 145.025L275.361 143.169L275.123 142.538L274.442 140.731L274.205 140.1L273.83 139.105C273.572 138.422 274.076 137.694 274.806 137.694H300.169C300.897 137.694 301.401 138.422 301.145 139.105Z" fill="#F7D707"/>
<path d="M300.769 140.1L300.532 140.732H274.442L274.205 140.1H300.769Z" fill="#AA5F26"/>
<path d="M299.852 142.538L299.614 143.17H275.361L275.123 142.538H299.852Z" fill="#AA5F26"/>
<path d="M298.915 145.025L298.677 145.656H276.297L276.06 145.025H298.915Z" fill="#AA5F26"/>
<path d="M283.098 159.079L282.19 162.008L269.543 202.774H267.071L275.092 162.841L275.847 159.079H283.098Z" fill="#3B3A39"/>
<path d="M307.977 202.774H305.505L292.484 160.802L291.95 159.079H299.2L299.383 159.993H299.384L307.977 202.774Z" fill="#3B3A39"/>
<path d="M302.722 179.227H272.187C271.606 179.227 271.136 178.756 271.136 178.175V177.693C271.136 177.112 271.606 176.641 272.187 176.641H302.722C303.303 176.641 303.773 177.112 303.773 177.693V178.175C303.773 178.756 303.303 179.227 302.722 179.227Z" fill="#5A5958"/>
</g>
</g>
<defs>
<clipPath id="clip0_1188_823">
<rect width="327" height="218" fill="white"/>
</clipPath>
</defs>
</svg>
