<?xml version="1.0" encoding="utf-8"?>
<!-- Generator: Adobe Illustrator 27.5.0, SVG Export Plug-In . SVG Version: 6.00 Build 0)  -->
<svg version="1.1" id="Слой_1" xmlns="http://www.w3.org/2000/svg" xmlns:xlink="http://www.w3.org/1999/xlink" x="0px" y="0px"
	 viewBox="0 0 3200 2000" style="enable-background:new 0 0 3200 2000;" xml:space="preserve">
<rect x="0.007" y="0.009" style="fill:#FFFFFF;" width="3200" height="2000"/>
<g>
	<path style="fill:#EBF3FA;" d="M367.524,1785.646c0,0-337.474-362.339-57.072-754.622
		c248.791-348.061,538.856-324.268,751.672-183.023c90.641,60.158,351.97,7.415,574.394-346.75
		c303.325-482.984,1354.76-190.052,1163.05,553.031c-92.773,359.6,282.348,372.671,91.209,732.127L367.524,1785.646z"/>
	<g>
		
			<rect x="468.395" y="1361.834" transform="matrix(0.7358 -0.6772 0.6772 0.7358 -865.5079 829.7723)" style="fill:#DFEBFD;" width="324.585" height="324.585"/>
		
			<rect x="380.626" y="1396.076" transform="matrix(0.7358 -0.6772 0.6772 0.7358 -824.116 745.1407)" style="fill:#BED7FB;" width="324.585" height="65.372"/>
	</g>
	<g>
		<polygon style="fill:#9EC3F6;" points="1337.701,353.971 1501.467,377.332 1392.791,303.259 1387.264,327.005 1347.438,334.218 		
			"/>
		<polygon style="fill:#CDE0FB;" points="1501.467,377.332 1365.188,307.069 1231.62,300.351 		"/>
		<polygon style="fill:#CDE0FB;" points="1392.791,303.259 1501.467,377.332 1417.336,261.565 		"/>
	</g>
	<g>
		<path style="fill:#FFFFFF;" d="M2253.471,677.049l-41.192,29.561l-41.406-29.24c9.178-12.913,24.332-21.45,41.406-21.45
			C2229.247,655.919,2244.293,664.243,2253.471,677.049z"/>
		<g>
			<path style="fill:#FFFFFF;" d="M2212.278,583.886c-41.406,0-78.011,20.596-100.207,52.078l26.146,18.354
				c16.434-23.264,43.54-38.418,74.061-38.418c30.308,0,57.2,14.94,73.634,37.884l26.04-18.675
				C2289.647,604.056,2253.258,583.886,2212.278,583.886z"/>
		</g>
		<g>
			<path style="fill:#FFFFFF;" d="M2212.278,446.969c-87.613,0-165.09,43.541-212.045,110.131l26.146,18.354
				c41.19-58.267,109.17-96.471,185.898-96.471c76.089,0,143.64,37.564,184.939,95.084l25.932-18.675
				C2376.087,489.763,2299.146,446.969,2212.278,446.969z"/>
		</g>
		<g>
			<path style="fill:#FFFFFF;" d="M2212.278,521.884c-62.323,0-117.602,30.84-151.216,78.116l26.145,18.355
				c27.853-38.952,73.526-64.457,125.071-64.457c51.117,0,96.472,25.078,124.43,63.497l25.934-18.569
				C2328.918,552.191,2274.067,521.884,2212.278,521.884z"/>
		</g>
	</g>
	<path style="fill:#ADCBF9;" d="M1357.841,856.411l-37.765-0.867c12.134,15.725,14.857,30.212,7.305,42.47
		c-7.553,12.506-25.631,22.783-52.624,30.583c20.431-54.357,30.708-111.685,30.708-170.5c0-127.195-49.491-251.7-142.889-344.839
		c-90.407-90.407-212.614-142.888-344.839-142.888c-74.249,0-145.992,16.456-211.237,47.919c-0.021,0.01-0.043,0.021-0.064,0.032
		c-20.977-6.401-41.409-11.647-61.122-15.643c-99.514-20.194-170.134-6.238-198.82,39.3c-27.298,43.31-12.438,108.504,41.732,184.54
		c-0.006,0.012-0.013,0.024-0.02,0.036c-12.103,22.361-23.753,48.885-32.317,74.292c-101.78,6.067-156.261,23.979-176.072,56.421
		c-23.031,37.765,8.42,88.449,109.086,137.729c13.868,6.81,28.726,13.497,44.328,20.183
		c12.059,105.956,60.327,208.665,139.545,287.882c44.823,44.699,96.951,79.864,155.023,104.504
		c177.897,75.041,389.969,39.907,534.779-104.504c43.585-43.585,78.131-94.351,102.523-150.565
		c49.651-10.277,82.34-26.374,95.341-47.671C1369.48,890.09,1368.365,873.746,1357.841,856.411z M1241.326,936.275
		c-33.06,5.943-74.292,9.41-122.458,9.905c-74.74,0.912-160.577-4.991-251.036-16.913c7.612-16.57,15.074-33.597,22.351-51.011
		c28.071,9.392,55.313,16.829,81.293,22.101c29.764,6.042,56.925,9.025,81.169,9.025c56.828,0,97.543-16.406,117.65-48.325
		c3.31-5.258,6.01-10.832,8.089-16.722h-28.969c-0.479,0.882-0.991,1.753-1.524,2.602c-14.936,23.71-48.314,35.958-95.181,35.947
		c-22.415,0-47.933-2.798-75.977-8.492c-24.445-4.958-50.079-11.923-76.51-20.695c6.975-17.452,13.757-35.238,20.306-53.295
		c17.659-48.689,32.775-96.954,45.004-143.303c99.104,14.61,202.641,15.049,302.102,7.548c6.293,30.511,9.473,61.737,9.473,93.45
		C1277.11,819.884,1265.1,879.813,1241.326,936.275z M637.785,1178.068c-14.089-5.109-21.242-25.332-24.761-41.396
		c-5.561-25.388-6.567-61.046-2.908-103.12c1.85-21.278,4.825-43.903,8.83-67.567c57.749,15.391,114.938,35.185,170.625,59.039
		c-12.544,21.629-25.227,41.685-37.909,59.864c-24.164,34.638-47.794,61.361-68.336,77.281
		C670.327,1172.242,651.876,1183.177,637.785,1178.068z M802.328,1002.382c-58.288-25.118-118.216-45.875-178.743-61.899
		c2.134-10.984,4.473-22.16,7.014-33.506c16.832,3.827,33.9,7.531,51.184,11.097c50.577,10.344,101.032,19.127,150.422,26.233
		C822.422,964.545,812.438,983.945,802.328,1002.382z M692.927,899.748c-19.542-4.021-38.8-8.222-57.727-12.584
		c8.91-37.075,19.855-75.727,32.634-115.111c66.424,40.832,133.975,74.047,197.935,97.619
		c-8.024,19.156-16.266,37.835-24.684,55.914C792.503,918.616,742.798,909.973,692.927,899.748z M530.695,399.288
		c36.921,75.644,108.076,137.968,184.648,179.309c-18.551,40.423-36.219,83.564-52.465,128.36
		c-3.029,8.352-5.975,16.689-8.853,25.008C556.985,668.8,474.829,596.321,420.935,526.178c-0.007-0.01-0.015-0.019-0.022-0.029
		C449.356,477.625,486.417,434.786,530.695,399.288z M945.623,329.292c14.089,5.11,21.241,25.332,24.76,41.396
		c5.561,25.387,6.567,61.046,2.908,103.121c-4.005,46.055-13.228,98.363-26.953,154.06
		c-67.485-11.611-134.923-30.755-197.014-60.892c26.462-55.186,54.444-104.401,82.421-144.505
		c24.164-34.638,47.794-61.361,68.336-77.281c10.719-8.307,25.144-17.198,37.775-17.198
		C940.544,327.993,943.151,328.396,945.623,329.292z M939.917,652.965c-11.912,44.818-26.583,91.497-43.677,138.629
		c-6.589,18.167-13.411,36.05-20.429,53.579c-64.212-23.576-132.367-57.296-199.371-98.947c3.463-10.123,7.036-20.28,10.728-30.459
		c15.881-43.788,33.118-85.932,51.191-125.4C801.602,621.017,870.11,640.803,939.917,652.965z M1142.518,433.194
		c59.583,59.583,99.109,131.145,119.103,205.979c-105.899,7.745-202.938,5.313-289.684-7.242
		c13.765-56.243,23.033-109.151,27.097-155.884c4.488-51.605,3.941-112.732-16.982-147.131
		C1042.663,352.206,1096.809,387.351,1142.518,433.194z M817.737,298.602c31.826,0,63.128,3.202,93.727,9.556
		c-36.091,15.71-72.94,59.435-100.91,99.531c-28.626,41.036-57.213,91.257-84.207,147.474
		C653.48,515.57,584.654,454.875,551.754,383.375C628.57,328.738,720.946,298.602,817.737,298.602z M368.897,356.098
		c14.937-23.71,48.314-35.947,95.181-35.947c22.415,0,47.933,2.798,75.977,8.492c10.647,2.155,21.523,4.692,32.583,7.61
		c0.01,0.002,0.02,0.005,0.029,0.008c-66.912,38.697-125.848,94.7-169.728,164.911c-0.008,0.012-0.015,0.025-0.023,0.037
		C361.503,439.718,349.054,387.579,368.897,356.098z M407.149,551.566c0.004-0.008,0.008-0.016,0.012-0.023
		c56.75,70.932,140.394,143.445,238.125,206.333c-13.857,42.176-25.681,83.627-35.223,123.351
		c-81.031-19.604-175.213-47.332-249.594-78.8c-6.168-61.678,0.548-124.114,19.068-183.007
		C386.727,596.581,396.264,573.042,407.149,551.566z M311.436,780.385c-87.789-42.842-127.906-84.197-109.953-113.543
		c14.487-23.774,67.234-39.87,147.965-45.813c-16.275,54.93-21.935,112.039-18.573,168.519
		C324.189,786.576,317.751,783.481,311.436,780.385z M605.442,901.12c-2.504,11.168-4.813,22.176-6.932,33.011
		c-5.634-1.366-11.27-2.705-16.911-3.988c-95.301-21.692-166.814-26.104-199.964-26.852c-8.211-24.734-14.249-50.031-18.071-75.854
		C428.492,852.413,501.574,876.367,605.442,901.12z M391.24,929.502c35.355,1.423,100.901,6.778,184.626,25.835
		c5.991,1.364,11.978,2.792,17.961,4.251c-4.309,25.133-7.489,49.151-9.452,71.725c-3.72,42.77-3.984,92.082,7.946,127.297
		c-36.309-20.439-69.606-45.726-99.487-75.607C448.29,1038.459,414.015,986.305,391.24,929.502z M678.419,1196.097
		c33.988-17.813,68.137-58.728,94.436-96.426c13.564-19.444,27.119-40.962,40.502-64.188
		c77.157,34.941,151.346,77.867,221.036,127.876C919.519,1224.748,790.153,1231.696,678.419,1196.097z M1142.518,1083.002
		c-25.395,25.469-53.362,47.599-83.566,66.237c-73.206-53.505-151.422-99.301-232.911-136.374
		c11.203-20.527,22.244-42.209,33.023-64.843c74.589,9.885,146.297,15.816,211.762,17.35c17.087,0.495,33.679,0.495,49.775,0.371
		c41.728-0.495,78.874-2.971,110.695-7.429C1209.009,1004.5,1179.168,1046.351,1142.518,1083.002z"/>
	<g>
		<g>
			<path style="fill:#D86713;" d="M1132.096,932.529l-67.449,801.977c0,0-7.067,48.614,29.094,48.7
				c59.456,0.142,295.931,0,295.931,0s-44.749-10.119-44.206-32.889c0.639-26.839,78.833-825.378,78.833-825.378L1132.096,932.529z"
				/>
			<path style="fill:#F99746;" d="M1408.858,1768.656c-11.693,0.034-237.556,0.743-295.456,0
				c-25.234-0.314-29.658-22.436-29.868-36.754c-0.104-6.863,0.767-11.938,0.767-11.938l1.753-20.845l4.471-53.127l3.948-46.938
				l5.075-60.315l4.273-50.909l47.925-569.86l292.206-7.583c0,0-32.934,334.184-56.228,577.443
				c-2.601,27.104-5.075,53.093-7.362,77.351c-0.744,7.746-1.452,15.317-2.148,22.691c-2.16,23.016-4.134,44.15-5.853,62.812
				c-0.906,9.836-1.742,18.975-2.497,27.348c-2.973,32.805-4.715,53.754-4.738,57.737c-0.012,2.322,0.186,4.482,0.569,6.491
				C1370.491,1767.82,1404.469,1768.656,1408.858,1768.656z"/>
			<polygon style="fill:#F99746;" points="422.463,496.123 586.755,1156.051 609.25,1246.431 685.769,1553.806 2107.375,1553.806 
				1825.338,496.123 			"/>
			<polygon style="fill:#EE9849;" points="422.46,496.122 399.691,503.712 655.498,1576.765 685.771,1553.81 			"/>
			<polygon style="fill:#D86713;" points="655.498,1576.765 2068.355,1576.765 2107.371,1553.81 685.771,1553.81 			"/>
			
				<rect x="1151.652" y="1768.977" transform="matrix(-1 -1.224647e-16 1.224647e-16 -1 2609.209 3552.4902)" style="fill:#F1A34F;" width="305.904" height="14.537"/>
			<polygon style="fill:#F1A34F;" points="2038.505,1358.911 1807.832,510.106 420.188,510.106 420.188,496.122 1825.336,496.122 
				2055.238,1357.024 			"/>
			<polygon style="fill:#D86713;" points="1379.793,1576.76 1378.213,1587.873 1090.525,1645.993 1094.474,1599.056 
				1096.355,1576.76 			"/>
			<path style="opacity:0.4;fill:#D86713;" d="M1408.858,1768.656c-11.693,0.034-237.556,0.743-295.456,0
				c-25.234-0.314-29.658-22.436-29.868-36.754l286.33-53.87c-2.973,32.805-4.715,53.754-4.738,57.737
				c-0.012,2.322,0.186,4.482,0.569,6.491C1370.491,1767.82,1404.469,1768.656,1408.858,1768.656z"/>
			<polygon style="opacity:0.4;fill:#D86713;" points="1310.26,1339.691 685.771,1553.81 609.25,1246.431 			"/>
			<polygon style="fill:#699DEE;" points="422.46,496.122 1825.336,496.122 2052.955,1346.167 626.853,1346.167 			"/>
		</g>
		<path style="fill:#D86713;" d="M1434.26,1453.624c-4.052-20.847-24.237-37.747-45.084-37.747c-20.847,0-34.461,16.9-30.409,37.747
			s24.237,37.746,45.084,37.746C1424.697,1491.37,1438.312,1474.471,1434.26,1453.624z"/>
		<polygon style="fill:#E9F3FE;" points="1986.797,1309.332 673.277,1309.332 524.52,716.748 513.123,671.308 503.39,632.546 
			495.604,601.513 480.574,541.655 1775.16,541.655 1776.065,544.948 1791.649,601.513 1800.205,632.546 1810.9,671.308 
			1823.429,716.748 		"/>
		<polygon style="fill:#E9F3FE;" points="1986.797,1311.357 673.277,1311.357 524.52,718.773 513.123,673.334 503.39,634.571 
			495.604,603.539 480.574,543.681 1775.16,543.681 1776.065,546.974 1791.649,603.539 1800.205,634.571 1810.9,673.334 
			1823.429,718.773 		"/>
		<polygon style="fill:#AFCDFB;" points="1791.649,601.513 495.604,601.513 480.574,541.655 1774.662,541.655 1776.065,544.948 		
			"/>
		<g>
			<path style="fill:#E9F3FE;" d="M516.586,571.584c-1.564-6.275,2.254-11.362,8.529-11.362s12.63,5.087,14.194,11.362
				c1.564,6.275-2.254,11.362-8.529,11.362S518.151,577.859,516.586,571.584z"/>
			<path style="fill:#E9F3FE;" d="M554.337,571.584c-1.565-6.275,2.254-11.362,8.529-11.362s12.63,5.087,14.194,11.362
				c1.565,6.275-2.254,11.362-8.529,11.362S555.902,577.859,554.337,571.584z"/>
			<path style="fill:#E9F3FE;" d="M594.987,571.584c-1.564-6.275,2.254-11.362,8.529-11.362s12.63,5.087,14.194,11.362
				c1.565,6.275-2.254,11.362-8.529,11.362S596.552,577.859,594.987,571.584z"/>
		</g>
		<g>
			<path style="fill:#2B478B;" d="M1082.45,1311.357H952.57c-1.245-10.151-2.343-20.881-3.328-32.073
				c-1.743-20.077-3.078-41.671-4.063-64.137c-0.238-5.184-0.441-10.412-0.634-15.675c-0.249-6.699-0.464-13.479-0.657-20.292
				c-0.317-11.566-0.566-23.269-0.747-35.039c-0.011-0.011-0.011-0.034-0.011-0.045c-0.226-15.007-0.339-30.116-0.374-45.168
				c0-0.012,0-0.012,0-0.012c-0.011-3.758-0.011-7.515-0.011-11.261v-0.012c0-3.531,0.011-7.039,0.023-10.548
				c0.113-32.401,0.6-64.182,1.29-93.732c1.494-65.381,3.916-119.864,5.206-146.052v-0.011c0.521-10.752,0.86-16.728,0.86-16.728
				c0.012,0,0.023,0.012,0.034,0.012c0.294,0.045,2.263,0.407,5.364,1.154c2.275,0.555,5.161,1.313,8.443,2.32h0.012
				c2.965,0.894,6.236,2.003,9.676,3.305c0.011,0,0.022,0,0.034,0.011c5.852,2.252,12.155,5.126,18.085,8.737
				c0.091,0.045,0.181,0.091,0.272,0.136c9.699,6.021,18.458,14,22.454,24.537c3.429,8.952,11.454,57.063,21.152,120.961
				c0.272,1.822,0.543,3.655,0.826,5.512c5.127,33.93,10.672,72.002,16.241,110.877c5.896,41.196,11.793,83.274,17.214,122.263
				C1074.562,1253.842,1078.851,1284.999,1082.45,1311.357z"/>
			<path style="fill:#233862;" d="M1046.075,1311.357H894.896c-2.897-12.472-5.614-24.502-8.024-35.786
				c-6.643-31.101-11.012-56.587-10.774-70.281c0.113-6.417,2.535-11.442,6.7-15.301c2.852-2.648,6.519-4.754,10.831-6.395
				c12.755-4.844,31.078-5.637,50.261-4.414c6.519,0.407,13.128,1.041,19.647,1.833c35.933,4.357,69.286,13.253,69.286,13.253
				s2.229,9.021,4.866,24.786c1.981,11.826,4.188,27.467,5.829,45.938c0.951,10.729,1.72,22.42,2.15,34.88
				C1045.792,1303.616,1045.928,1307.453,1046.075,1311.357z"/>
			<path style="fill:#C65447;" d="M976.258,1205.471l-1.505,10.922l-7.322,53.034l-1.245,9.054l-4.538,32.877H804.096
				c-1.223-21.729-2.354-42.904-2.569-61.363c-0.022-2.049-0.034-4.052-0.034-6.021c0-27.796,2.444-48.405,10.412-53.611
				c9.031-5.896,38.989-4.278,70.893-0.373c3.18,0.384,6.383,0.803,9.586,1.233c18.595,2.501,37.201,5.591,52.163,8.25
				c7.764,1.381,14.543,2.648,19.817,3.656C971.81,1204.555,976.258,1205.471,976.258,1205.471z"/>
			<path style="fill:#FFFFFF;" d="M801.494,847.923c0,0,86.554-55.967,148.636-27.345c9.893,4.561,21.178,17.289,29.256,26.191
				c22.44,24.727,66.289,417.524,66.289,417.524s-124.473,42.156-244.181-14.307V847.923z"/>
			<path style="fill:#2B478B;" d="M955.055,819.159c0,0,87.624,35.91,99.492,63.502c11.868,27.592,50.439,197.031,50.439,216.899
				c0,19.869-67.161,4.442-77.972-27.604c-8.978-26.61-39.261-108.358-55.229-160.063L955.055,819.159z"/>
			<g>
				<path style="fill:#FFB27D;" d="M936.856,846.522c-19.128,3.751-47.227-0.248-67.8-13.807
					c9.288-22.185,13.095-39.701,14.45-51.036c0.079-0.603,0.138-1.187,0.198-1.75c0.613-5.875,0.524-9.861,0.237-11.691h49.454
					c0,0,13.52,6.182,13.52,10.455c0,2.285,0.02,4.471,0.06,6.558c0.099,5.687,0.327,10.652,0.623,14.915
					c0.94,13.876,2.532,20.414,2.532,20.414S956.172,842.734,936.856,846.522z"/>
				<path style="fill:#E2915A;" d="M947.598,800.165c-37.466,7.24-59.215-13.234-64.091-18.486
					c-0.692-0.752-1.048-1.197-1.048-1.197c0.395-0.198,0.811-0.375,1.246-0.554c13.946-5.647,45.596-1.157,63.27,5.321
					C947.074,790.937,947.301,795.901,947.598,800.165z"/>
				<path style="fill:#FFB27D;" d="M871.269,760.109c6.695,36.032,53.189,34.85,73.282,32.585c5.655-0.629,9.212-1.351,9.212-1.351
					c6.376-1.703,9.933-11.746,11.586-24.9c3.28-26.033-0.864-64.247-5.26-74.02c-6.62-14.707-19.086-30.613-65.908-19.137
					C847.35,684.771,862.678,713.941,871.269,760.109z"/>
				<path style="fill:#233862;" d="M961.831,672.323c-6.399-8.86-19.968-19.685-32.292-26.353
					c-26.475-14.323-60.36,0.451-60.502,0.513c-38.244,16.815-48.231,46.074-27.955,91.653
					c21.44,48.198,41.856,42.774,41.856,42.774s-4.333-2.696-3.941-17.717c0.022-0.854,0.057-1.567,0.096-2.181
					c0.197-3.078-0.888-6.165-3.19-8.219c-4.75-4.24-7.065-17.062-3.088-20.632c4.799-4.307,11.542,0.925,13.696,4.948
					c1.882,2.841,5.253,3.837,8.393,1.852c11.903-7.524,4.171-22.575,15.545-31.783c11.374-9.208,34.455-1.477,51.517-8.815
					C984.301,690.042,966.653,678.999,961.831,672.323z"/>
			</g>
			<path style="fill:#2B478B;" d="M967.974,1311.357H779.515c1.347-39.079,3.078-85.741,4.9-132.98
				c0.464-12.245,0.951-24.548,1.426-36.748c0.215-5.172,0.407-10.311,0.611-15.448c4.165-104.913,8.296-199.652,9.167-204.756
				c1.981-11.544,3.848-21.379,5.874-29.912c5.919-24.854,13.275-38.479,29.323-50.205c1.562-1.188,14.396-7.651,25.702-13.287
				c9.235-4.583,17.452-8.59,17.701-8.703v-0.012h0.011c1.867,0.906,3.927,3.509,6.1,7.368c2.173,3.859,4.459,8.997,6.802,14.996
				c8.613,22.125,17.916,55.988,24.378,81.282c0.011,0.034,0.023,0.057,0.023,0.079c0.011,0.023,0.011,0.034,0.011,0.045
				c0,0.011,0,0.011,0,0.011c4.165,16.331,7.153,29.041,8.002,32.696c1.448,6.157,3.35,18.074,5.602,34.213v0.045
				c3.044,22.012,6.677,51.879,10.525,85.776v0.011c0.396,3.486,0.792,7.006,1.188,10.56c0.453,4.063,0.917,8.171,1.381,12.324
				v0.012c0.147,1.335,0.294,2.671,0.43,4.006v0.012c1.483,13.423,2.977,27.264,4.459,41.354c0,0.011,0,0.034,0.011,0.045
				c1.268,11.612,18.878,20.021,20.1,31.848c0.09,0.86,0.181,2.603,0.294,5.024c0.226,5.003,0.498,12.937,0.826,22.115
				c0.136,4.085,0.283,8.42,0.441,12.845c0.69,19.67,1.539,41.219,2.501,51.585c0.045,0.487,0.09,1.109,0.125,1.868
				c0.113,2.07,0.204,5.115,0.283,8.94C967.872,1286.493,967.951,1298.116,967.974,1311.357z"/>
			<path style="fill:#233862;" d="M839.416,963.717c-0.056,0.239-3.001,106.087,76.619,118.944
				c79.62,12.858,26.718,16.258,26.718,16.258s-149.805-6.367-152.278-10.323C788.002,1084.64,839.416,963.717,839.416,963.717z"/>
			<path style="fill:#233862;" d="M906.688,1128.1c0,0-1.494,1.058-4.362,2.907c-0.05,0.02-0.099,0.06-0.148,0.089
				c-12.146,7.755-48.197,28.891-100.687,43.064c-5.509,1.493-11.206,2.907-17.071,4.213c0.465-12.244,0.95-24.539,1.424-36.743
				c-6.933-0.544-13.57-1.425-19.732-2.73c0.208-1.612,0.425-3.224,0.633-4.836c6.676-2.74,13.313-5.381,19.712-7.883
				c5.212-2.038,10.256-3.977,15.034-5.776c21.562-8.189,37.545-13.738,37.545-13.738l63.824,20.217L906.688,1128.1z"/>
			<path style="fill:#2B478B;" d="M923.581,1126.328c0,0-8.2,2.048-21.255,4.679c-0.05,0-0.089,0.01-0.139,0.03
				c-24.074,4.836-64.546,11.621-100.697,11.255c-5.331-0.06-10.573-0.267-15.647-0.662c-6.933-0.544-13.57-1.425-19.732-2.73
				c-13.214-2.789-24.282-7.507-31.521-14.886c-53.775-54.773,29.346-251.36,46.822-270.489
				c20.405-22.333,57.643-30.167,78.206-32.856c0.86-0.109,1.681-0.218,2.482-0.317c7.23-0.86,11.869-1.038,12.126-1.048
				c0.01,0,0.01,0,0.01,0s-1.612,5.183-4.313,13.976c-1.049,3.402-2.265,7.349-3.6,11.75
				c-12.63,41.363-37.001,122.654-47.742,168.497c-3.936,16.775-6.043,28.802-5.084,32.393
				c4.193,15.656,47.643,23.707,75.169,27.269c11.483,1.483,20.197,2.186,22.145,2.334c0.139,0,0.267,0.01,0.406,0.029l1.592,6.528
				l3.808,15.656l3.748,15.381L923.581,1126.328z"/>
			<polygon style="fill:#F99746;" points="1073.564,1220.561 888.878,1212.779 926.348,982.616 1111.034,990.397 			"/>
			<path style="fill:#FFB27D;" d="M911.218,1075.553c0,0,35.952-2.508,37.755,5.872c4.204,19.534-30.908,35.574-42.283,34.478
				C895.316,1114.806,902.943,1074.248,911.218,1075.553z"/>
			<path style="fill:#FFB27D;" d="M1100.937,1037.136c0,0-34.396-10.755-38.089-3.02c-8.608,18.032,21.841,41.759,33.16,43.323
				C1107.328,1079.004,1109.289,1037.78,1100.937,1037.136z"/>
			<path style="fill:#233862;" d="M877.966,807.745c0,0-15.124,7.209-22.707,18.089c0,0,56.535,98.158,56.283,97.238
				C911.289,922.152,892.431,820.318,877.966,807.745z"/>
			<path style="fill:#233862;" d="M948.381,809.129c4.98,1.879,14.53,11.662,16.682,17.071l6.721,85.693
				c0,0-14.35-62.889-21.654-91.315C948.273,813.352,948.615,811.158,948.381,809.129z"/>
			<path style="fill:#C65447;" d="M987.57,985.195c0,0,1.46-6.386,9.866-5.644c8.407,0.742,55.635,3.065,55.635,3.065
				s9.109-0.15,8.263,5.687L987.57,985.195z"/>
			<path style="fill:#FFFFFF;" d="M933.395,768.237c0,0,6.13,5.588,16.021,3.857c5.866-1.026,9.149-8.654,9.149-8.654
				S947.293,761.413,933.395,768.237z"/>
		</g>
		<g>
			<g>
				<polygon style="fill:#FFFFFF;" points="1808.529,839.863 1672.107,840.367 1627.869,671.002 1764.29,670.498 				"/>
				<g>
					<polygon style="fill:#ADCBF9;" points="1730.455,692.752 1673.253,692.963 1672.598,690.458 1729.801,690.246 					"/>
					<polygon style="fill:#ADCBF9;" points="1739.588,699.714 1667.771,699.979 1667.116,697.474 1738.934,697.208 					"/>
					<g>
						<polygon style="fill:#ADCBF9;" points="1759.335,734.183 1666.052,734.527 1665.397,732.021 1758.681,731.676 						"/>
						<polygon style="fill:#ADCBF9;" points="1761.492,742.44 1668.209,742.785 1667.554,740.279 1760.837,739.934 						"/>
						<polygon style="fill:#ADCBF9;" points="1763.649,750.698 1670.365,751.042 1669.711,748.537 1762.994,748.192 						"/>
						<polygon style="fill:#ADCBF9;" points="1765.806,758.956 1672.522,759.301 1671.868,756.794 1765.151,756.45 						"/>
						<polygon style="fill:#ADCBF9;" points="1767.963,767.214 1674.68,767.559 1674.025,765.052 1767.309,764.708 						"/>
					</g>
					<g>
						<polygon style="fill:#ADCBF9;" points="1773.212,787.31 1679.929,787.654 1679.274,785.148 1772.558,784.803 						"/>
						<polygon style="fill:#ADCBF9;" points="1775.369,795.567 1682.086,795.912 1681.431,793.406 1774.715,793.062 						"/>
						<polygon style="fill:#ADCBF9;" points="1777.526,803.825 1684.242,804.17 1683.588,801.664 1776.871,801.319 						"/>
						<polygon style="fill:#ADCBF9;" points="1779.684,812.083 1686.399,812.428 1685.745,809.921 1779.028,809.577 						"/>
						<polygon style="fill:#ADCBF9;" points="1781.84,820.341 1688.557,820.685 1687.902,818.179 1781.186,817.835 						"/>
					</g>
				</g>
			</g>
			<g>
				<polygon style="fill:#FFFFFF;" points="1863.501,1050.318 1727.08,1050.822 1682.841,881.456 1819.262,880.953 				"/>
				<g>
					<polygon style="fill:#ADCBF9;" points="1785.427,903.207 1728.225,903.419 1727.57,900.912 1784.772,900.701 					"/>
					<polygon style="fill:#ADCBF9;" points="1794.56,910.169 1722.743,910.435 1722.088,907.928 1793.905,907.663 					"/>
					<g>
						<polygon style="fill:#ADCBF9;" points="1814.307,944.637 1721.023,944.982 1720.369,942.476 1813.652,942.131 						"/>
						<polygon style="fill:#ADCBF9;" points="1816.464,952.896 1723.181,953.24 1722.525,950.733 1815.81,950.389 						"/>
						<polygon style="fill:#ADCBF9;" points="1818.621,961.153 1725.338,961.498 1724.683,958.991 1817.966,958.647 						"/>
						<polygon style="fill:#ADCBF9;" points="1820.777,969.411 1727.494,969.755 1726.84,967.25 1820.123,966.905 						"/>
						<polygon style="fill:#ADCBF9;" points="1822.935,977.669 1729.651,978.013 1728.997,975.507 1822.28,975.163 						"/>
					</g>
					<g>
						<polygon style="fill:#ADCBF9;" points="1828.184,997.765 1734.9,998.109 1734.246,995.602 1827.529,995.258 						"/>
						<polygon style="fill:#ADCBF9;" points="1830.341,1006.023 1737.058,1006.367 1736.402,1003.86 1829.687,1003.517 						"/>
						<polygon style="fill:#ADCBF9;" points="1832.498,1014.28 1739.215,1014.625 1738.56,1012.118 1831.843,1011.774 						"/>
						<polygon style="fill:#ADCBF9;" points="1834.654,1022.538 1741.371,1022.883 1740.717,1020.376 1834,1020.032 						"/>
						<polygon style="fill:#ADCBF9;" points="1836.812,1030.796 1743.528,1031.141 1742.874,1028.635 1836.157,1028.29 						"/>
					</g>
				</g>
			</g>
			<g>
				<polygon style="fill:#FFFFFF;" points="1918.843,1262.188 1782.421,1262.692 1738.182,1093.327 1874.604,1092.823 				"/>
				<g>
					<polygon style="fill:#ADCBF9;" points="1840.769,1115.077 1783.566,1115.289 1782.911,1112.782 1840.114,1112.571 					"/>
					<polygon style="fill:#ADCBF9;" points="1849.901,1122.039 1778.084,1122.305 1777.43,1119.799 1849.247,1119.533 					"/>
					<g>
						<polygon style="fill:#ADCBF9;" points="1869.648,1156.508 1776.365,1156.852 1775.71,1154.346 1868.993,1154.002 						"/>
						<polygon style="fill:#ADCBF9;" points="1871.805,1164.766 1778.521,1165.109 1777.867,1162.604 1871.15,1162.26 						"/>
						<polygon style="fill:#ADCBF9;" points="1873.963,1173.023 1780.679,1173.368 1780.024,1170.861 1873.308,1170.518 						"/>
						<polygon style="fill:#ADCBF9;" points="1876.119,1181.281 1782.836,1181.626 1782.182,1179.119 1875.465,1178.775 						"/>
						<polygon style="fill:#ADCBF9;" points="1878.276,1189.539 1784.993,1189.884 1784.338,1187.377 1877.621,1187.033 						"/>
					</g>
					<g>
						<polygon style="fill:#ADCBF9;" points="1883.525,1209.635 1790.242,1209.979 1789.587,1207.473 1882.871,1207.129 						"/>
						<polygon style="fill:#ADCBF9;" points="1885.683,1217.893 1792.399,1218.237 1791.744,1215.73 1885.027,1215.387 						"/>
						<polygon style="fill:#ADCBF9;" points="1887.839,1226.15 1794.556,1226.495 1793.901,1223.988 1887.185,1223.645 						"/>
						<polygon style="fill:#ADCBF9;" points="1889.996,1234.408 1796.713,1234.753 1796.059,1232.246 1889.342,1231.902 						"/>
						<polygon style="fill:#ADCBF9;" points="1892.153,1242.666 1798.87,1243.011 1798.215,1240.505 1891.499,1240.16 						"/>
					</g>
				</g>
			</g>
			<g>
				<g>
					<polygon style="fill:#FFFFFF;" points="1739.465,1263.615 1262.324,1265.377 1125.002,739.652 1187.162,672.72 
						1584.736,671.252 					"/>
					<polygon style="fill:#ADCBF9;" points="1453.304,760.098 1285.144,760.719 1283.22,753.351 1451.38,752.731 					"/>
					<polygon style="fill:#ADCBF9;" points="1480.152,780.565 1269.029,781.344 1267.105,773.977 1478.228,773.197 					"/>
					<g>
						<polygon style="fill:#ADCBF9;" points="1538.202,881.892 1263.975,882.904 1262.05,875.536 1536.278,874.524 						"/>
						<polygon style="fill:#ADCBF9;" points="1544.543,906.167 1270.315,907.18 1268.391,899.813 1542.619,898.8 						"/>
						<polygon style="fill:#ADCBF9;" points="1550.884,930.443 1276.656,931.456 1274.732,924.088 1548.96,923.076 						"/>
						<polygon style="fill:#ADCBF9;" points="1557.226,954.719 1282.997,955.732 1281.073,948.364 1555.301,947.352 						"/>
						<polygon style="fill:#ADCBF9;" points="1563.566,978.995 1289.338,980.008 1287.414,972.641 1561.642,971.628 						"/>
					</g>
					<g>
						<polygon style="fill:#ADCBF9;" points="1578.997,1038.07 1304.769,1039.083 1302.845,1031.716 1577.073,1030.703 						"/>
						<polygon style="fill:#ADCBF9;" points="1585.338,1062.347 1311.11,1063.359 1309.186,1055.991 1583.414,1054.979 						"/>
						<polygon style="fill:#ADCBF9;" points="1591.679,1086.623 1317.451,1087.635 1315.527,1080.268 1589.755,1079.255 						"/>
						<polygon style="fill:#ADCBF9;" points="1598.02,1110.898 1323.792,1111.911 1321.868,1104.544 1596.096,1103.531 						"/>
						<polygon style="fill:#ADCBF9;" points="1604.361,1135.175 1330.133,1136.188 1328.209,1128.819 1602.437,1127.808 						"/>
					</g>
				</g>
				<polygon style="fill:#ADCBF9;" points="1125.002,739.652 1204.568,739.358 1187.162,672.72 				"/>
			</g>
		</g>
	</g>
	<g>
		<g>
			<g>
				<path style="fill:#FCECDB;" d="M2274.234,1675.929h-388.436v-137.19h389.68c30.296,0,54.855,24.56,54.855,54.855v26.236
					C2330.334,1650.813,2305.218,1675.929,2274.234,1675.929z"/>
				<path style="fill:#699DEE;" d="M2661.881,1595.184v20.639c0,11.029-2.965,21.356-8.152,30.232
					c-10.413,17.864-29.783,29.871-51.959,29.871h-727.876c-4.816,0-8.719-3.902-8.719-8.711v-3.091
					c0-4.809,3.902-8.711,8.719-8.711h443.707c2.373-2.894,4.462-6.023,6.228-9.358c4.155-7.828,6.504-16.752,6.504-26.228v-26.236
					c0-4.825-0.623-9.508-1.797-13.962c-1.986-7.553-5.543-14.466-10.288-20.371h-444.354c-4.816,0-8.719-3.902-8.719-8.719v-3.083
					c0-4.816,3.902-8.719,8.719-8.719h731.541c25.779,0,47.521,17.28,54.271,40.892
					C2661.124,1584.572,2661.881,1589.791,2661.881,1595.184z"/>
				<path style="fill:#548EE2;" d="M2659.705,1579.629h-331.17c-1.986-7.553-5.543-14.466-10.288-20.371h-444.354
					c-4.816,0-8.719-3.902-8.719-8.719v-3.083c0-4.816,3.902-8.719,8.719-8.719h731.541
					C2631.214,1538.737,2652.956,1556.018,2659.705,1579.629z"/>
			</g>
			<polygon style="fill:#F4D2B8;" points="1885.799,1607.334 1939.693,1609.64 1885.799,1611.029 			"/>
			<polygon style="fill:#F4D2B8;" points="1885.799,1628.859 2014.018,1631.165 1885.799,1632.555 			"/>
		</g>
		<g>
			<g>
				<g>
					<path style="fill:#2B478B;" d="M1978.435,1782.351h413.504v-106.71H1975.08c-28.541,0-51.678,23.137-51.678,51.677v0.001
						C1923.402,1757.712,1948.041,1782.351,1978.435,1782.351z"/>
					<path style="fill:#FCECDB;" d="M2368.201,1782.351h470.604v-106.71H2367.01c-29.019,0-52.543,23.523-52.543,52.543v0.433
						C2314.467,1758.293,2338.524,1782.351,2368.201,1782.351z"/>
					<path style="fill:#2B478B;" d="M2283.044,1782.351h572.104c4.407,0,7.979-3.573,7.979-7.98l0,0
						c0-4.407-3.572-7.979-7.979-7.979h-572.104c-4.407,0-7.979,3.572-7.979,7.979l0,0
						C2275.064,1778.777,2278.637,1782.351,2283.044,1782.351z"/>
					<path style="fill:#2B478B;" d="M2283.044,1691.6h572.104c4.407,0,7.979-3.572,7.979-7.979l0,0c0-4.407-3.572-7.979-7.979-7.979
						h-572.104c-4.407,0-7.979,3.572-7.979,7.979l0,0C2275.064,1688.027,2278.637,1691.6,2283.044,1691.6z"/>
				</g>
				<polygon style="fill:#F4D2B8;" points="2838.806,1728.995 2775.236,1730.789 2838.806,1731.87 				"/>
				<polygon style="fill:#F4D2B8;" points="2838.806,1704.438 2687.569,1706.231 2838.806,1707.312 				"/>
			</g>
			<g>
				<path style="fill:#699DEE;" d="M2689.125,1705.874c0,0,6.481,4.585,8.627,12.122c0.38,1.317,0.623,2.729,0.673,4.216
					c0.357,10.013,0,32.675,0,32.675l19.135-11.331l19.085,11.331v-30.715c0-5.808-1.638-11.457-4.678-15.156
					c-1.475-1.792-3.262-3.142-5.287-3.142H2689.125z"/>
				<path style="fill:#568CDB;" d="M2689.125,1705.874c0,0,6.481,4.585,8.627,12.122l38.347,0.448c0,0-1.505-10.791-9.419-12.57
					H2689.125z"/>
			</g>
		</g>
		<g>
			<g>
				<g>
					<path style="fill:#FCECDB;" d="M2320.077,1539.027h422.479v-156.781h-423.867c-33.833,0-61.261,27.428-61.261,61.261v32.871
						C2257.428,1510.979,2285.477,1539.027,2320.077,1539.027z"/>
					<path style="fill:#B5453C;" d="M2267.365,1443.076v33.741c0.104,14.411,8.081,26.914,19.804,33.6
						c5.771,3.279,12.44,5.155,19.527,5.155H2765.5c5.376,0,9.736,4.36,9.736,9.736v3.981c0,5.377-4.36,9.736-9.736,9.736h-792.591
						c-22.743,0-42.839-11.305-54.979-28.609c-7.654-10.903-12.148-24.179-12.148-38.519v-26.623c0-9.822,2.247-19.125,6.26-27.41
						c10.193-21.081,31.778-35.618,56.769-35.618h796.69c5.376,0,9.736,4.352,9.736,9.729v3.981c0,5.376-4.36,9.735-9.736,9.735
						h-460.207c-10.997,0-20.954,4.683-27.907,12.173C2271.229,1424.503,2267.429,1433.34,2267.365,1443.076z"/>
				</g>
				<polygon style="fill:#F4D2B8;" points="2742.556,1460.637 2683.74,1463.272 2742.556,1464.859 				"/>
				<polygon style="fill:#F4D2B8;" points="2742.556,1424.556 2602.629,1427.191 2742.556,1428.779 				"/>
			</g>
			<g>
				<path style="fill:#F99746;" d="M2604.069,1426.668c0,0,9.234,4.971,12.292,13.143c0.541,1.429,0.887,2.96,0.958,4.571
					c0.51,10.857,0,35.43,0,35.43l27.265-12.286l27.193,12.286v-33.304c0-6.297-2.334-12.423-6.666-16.435
					c-2.1-1.942-4.647-3.405-7.531-3.405H2604.069z"/>
				<path style="fill:#ED7D2B;" d="M2604.069,1426.668c0,0,9.234,4.971,12.292,13.143l54.638,0.486c0,0-2.144-11.701-13.419-13.629
					H2604.069z"/>
			</g>
		</g>
	</g>
	<g>
		<g>
			<path style="fill:#233862;" d="M2327.423,1324.115c24.183,42.088,54.598,58.334,54.598,58.334h126.535
				C2508.556,1382.449,2308.975,1292.007,2327.423,1324.115z"/>
			<g>
				<path style="fill:#FFB27D;" d="M2424.606,1649.758c3.298,3.779,3.718,8.002,2.086,12.512c-0.002,0.018-0.013,0.045-0.032,0.062
					c-3.019,8.34-12.988,17.653-24.57,26.954c-1.479,1.194-2.797,2.281-3.943,3.287c-0.301,0.264-0.602,0.528-0.885,0.794
					c-0.233,0.204-0.458,0.419-0.682,0.614c-10.801,9.956-6.736,12.237-26.139,32.439c-22.124,23.019-37.356,23.434-41.689,21.336
					c-3.666-1.787,3.782-13.996,12.035-27.718c0.4-0.661,0.792-1.331,1.202-2.001c1.1-1.824,2.192-3.676,3.283-5.51
					c9.671-16.516,7.188-24.265,4.895-48.842c-1.863-19.973-31.071-111.579-31.071-111.579l42.397-7.304
					c0,0,12.769,72.946,26.836,84.18c7.522,5.988,15.942,6.063,23.173,10.502c0.512,0.309,1.013,0.625,1.504,0.951
					C2417.115,1643.158,2421.3,1645.97,2424.606,1649.758z"/>
				<path style="fill:#233862;" d="M2424.606,1649.758c3.298,3.779,3.718,8.002,2.086,12.512c-0.002,0.018-0.013,0.045-0.032,0.062
					c-3.695,8.332-13.416,17.599-24.61,26.869c-1.463,1.214-2.754,2.329-3.903,3.372c-0.301,0.264-0.602,0.528-0.885,0.794
					c-0.233,0.204-0.458,0.419-0.682,0.614c-10.801,9.956-6.736,12.237-26.139,32.439c-22.124,23.019-37.356,23.434-41.689,21.336
					c-3.666-1.787,3.782-13.996,12.035-27.718c4.308-1.578,24.313-9.704,39.438-29.06c13.321-17,22.206-38.842,31.277-51.494
					c0.512,0.309,1.013,0.625,1.504,0.951C2417.115,1643.158,2421.3,1645.97,2424.606,1649.758z"/>
				<path style="fill:#FFB27D;" d="M2082.737,1623.278c-2.618,13.087-21.272,10.903-42.114,5.811s-15.889,0.962-45.551-2.322
					c-29.662-3.283-38.648-14.344-39.553-18.754c-0.81-3.913,13.847-5.294,29.567-7.104c1.978-0.222,3.963-0.467,5.949-0.711
					c17.749-2.228,30.747-13.681,46.87-23.087c15.271-8.91,38.061-45.21,38.061-45.21l40.68,3.222c0,0-21.347,32.423-29.604,46.52
					c-4.856,8.291-4.599,19.255-3.993,27.722C2083.365,1613.965,2083.665,1618.669,2082.737,1623.278z"/>
				<path style="fill:#233862;" d="M2040.623,1629.089c-20.842-5.093-15.889,0.962-45.551-2.322
					c-29.662-3.283-38.648-14.344-39.553-18.754c-0.81-3.913,13.847-5.294,29.567-7.104l0.147,0.302
					c0,0,17.788,12.613,42.479,13.204c20.124,0.489,41.439-5.276,55.336-5.051c0.315,4.602,0.615,9.306-0.313,13.915
					C2080.119,1636.365,2061.465,1634.182,2040.623,1629.089z"/>
				<path style="fill:#233862;" d="M2238.63,1363.166l38.028,102.328l49.646,133.609c0,0,13.473,1.301,26.375-2.41
					c11.878-3.434,25.508-12.416,25.508-12.416s-13.785-143.459-39.502-225.811c-6.589-21.139-13.977-38.236-22.127-47.86
					C2276.692,1263.491,2238.63,1363.166,2238.63,1363.166z"/>
				<path style="fill:#2B478B;" d="M2277.293,1200.656c24.914-8.036,95.97,2.282,167.348,16.254l14.945-24.649l154.174-12.04
					c0,0,50.875,112.82,23.023,184.708c-4.094,10.565-12.229,17.343-26.095,17.565c-0.005,0.006-2.245-0.007-2.251,0
					c0,0-91.762-0.054-121.558-0.054c-76.673,0-162.267-52.705-173.339-54.919c-18.124-3.625-25.373,32.622-43.497,70.682
					c-18.123,38.059-170.36,168.548-170.36,168.548s-23.398,0.232-33.064-3.392c-10.395-3.898-14.197-8.962-14.197-8.962
					S2221.111,1218.78,2277.293,1200.656z"/>
				<path style="fill:#233862;" d="M2460.492,979.94c54.9,30.229,166.276,92.896,166.855,92.49c0,0,40.936,15.426,64.16,0.002
					c38.708-25.706,59.467-94.891-11.322-154.43c-35.305-29.693-60.387-36.922-64.198-84.335
					c-2.067-25.723-37.23-110.616-95.652-102.765c-4.883,0.656-34.934,2.059-54.684,12.43
					C2415.323,769.761,2378.188,968.24,2460.492,979.94z"/>
				<path style="fill:#FFB27D;" d="M2506.508,954.21c-0.241,0.156,27.013,9.46,45.236,1.39
					c17.145-7.576,30.131-35.783,29.877-35.797c-7.799-0.36-16.361-7.178-22.955-51.918l-3.32,1.191l-55.837,20.092
					c0,0,4.046,17.917,6.662,34.975C2508.374,938.464,2509.558,952.184,2506.508,954.21z"/>
				<path style="fill:#ED975D;" d="M2499.509,889.167c0,0,4.046,17.917,6.662,34.975c32.071-5.773,44.658-37.727,49.175-55.066
					L2499.509,889.167z"/>
				<path style="fill:#FFB27D;" d="M2491.193,906.951c0,0,76.395-10.254,69.277-57.731c-7.118-47.477-2.052-80.775-51.129-76.236
					c-49.077,4.539-55.816,24.074-57.295,40.498C2450.568,829.907,2471.137,908.394,2491.193,906.951z"/>
				<path style="fill:#233862;" d="M2454.831,787.458c0,0,48.904,42.144,82.169,45.542s45.858-7.28,45.858-7.28
					s-19.607-16.28-31.407-42.552c-3.478-7.744-10.824-13.058-19.281-13.788C2508.416,767.33,2463.389,766.394,2454.831,787.458z"/>
				<path style="fill:#233862;" d="M2485.401,783.684c0,0-16.36,15.818-21.513,27.552c-4.973,11.322-6.463,38.402-2.504,49.157
					c0,0-25.49-49.565-11.059-73.646C2465.629,761.211,2485.401,783.684,2485.401,783.684z"/>
				<path style="fill:#FFFFFF;" d="M2442.18,1066.747c2.31,154.643,0.634,122.328,17.549,137.002
					c4.076,3.533,15.535,5.639,30.617,6.635c47.418,3.148,130.774-4.664,133.944-13.428c10.938-30.322,3.216-39.742,12.342-86.164
					c0.951-4.937,2.128-10.281,3.51-16.101c7.608-31.885,15.014-42.731-11.979-93.955c-24.479-46.399-49.909-84.058-52.196-82.699
					c-64.583,38.338-69.792,6.114-69.792,6.114S2441.047,991.316,2442.18,1066.747z"/>
				<path style="fill:#2B478B;" d="M2276.658,1465.494l49.646,133.609c0,0,13.473,1.301,26.375-2.41
					c11.878-3.434,25.508-12.416,25.508-12.416s-13.785-143.459-39.502-225.811L2276.658,1465.494z"/>
				<path style="fill:#FFFFFF;" d="M2506.171,924.142c0,0-66.454,11.267-74.258,39.879s-53.726,196.817-53.726,196.817
					s33.783,6.07,49.391-9.537c15.606-15.606,54.305-144.795,54.305-144.795L2506.171,924.142z"/>
				<path style="fill:#EBF3FF;" d="M2490.346,1210.384c47.418,3.148,130.774-4.664,133.944-13.428
					c10.938-30.322,3.216-39.742,12.342-86.164l-22.872-64.402c0,0,3.782,71.716-17.368,90.579
					c-21.128,18.863-86.595,36.414-96.875,52.175C2494.557,1196.707,2491.296,1204.293,2490.346,1210.384z"/>
				<path style="fill:#FFB27D;" d="M2544.675,1180.221c0,0-46.781-10.416-54.329-6.265c-7.549,4.151-25.997,19.271-28.307,24.532
					c-2.311,5.261,16.805-3.994,23.021-5.661c4.027-1.08,14.626,2.603,19.873,4.352c22.078,7.359,35.607,3.574,35.607,3.574
					L2544.675,1180.221z"/>
				<path style="fill:#FFFFFF;" d="M2576.005,918.003c0,0,62.815,3.87,84.561,34.199c30.61,42.693,91.333,224.642,56.532,248.909
					c-39.191,27.327-178.369,7.149-178.369,7.149s-4.631-21.649,1.813-32.121c6.444-10.472,111.163-27.388,115.996-32.221
					c4.834-4.834-60.414-94.247-60.414-108.747C2596.123,1020.672,2576.005,918.003,2576.005,918.003z"/>
				<path style="fill:#FFB27D;" d="M2488.08,1186.977c0,0-9.802,12.644-13.015,14.153c-3.214,1.51-5.29,1.133-5.29,1.133
					l6.605-11.889L2488.08,1186.977z"/>
				<path style="fill:#FFB27D;" d="M2490.346,1173.956l-28.499,13.839c0,0,1.212,1.984,4.722,1.824
					c3.509-0.16,12.359-3.397,12.359-3.397L2490.346,1173.956z"/>
			</g>
			<g>
				<g>
					<polygon style="fill:#F99746;" points="2475.065,1220.499 2249.632,1220.499 2181.817,1051.863 2406.903,1051.863 					"/>
					<polygon style="fill:#ED7D2B;" points="2246.989,1213.929 2544.675,1213.929 2544.675,1220.499 2249.632,1220.499 					"/>
				</g>
				<path style="fill:#FFFFFF;" d="M2306.539,1136.181c-1.7-5.928,1.728-10.733,7.655-10.733s12.111,4.806,13.812,10.733
					c1.699,5.929-1.728,10.733-7.656,10.733C2314.422,1146.914,2308.238,1142.109,2306.539,1136.181z"/>
			</g>
		</g>
	</g>
	<g>
		<g>
			<path style="fill:#AFCDFB;" d="M426.479,1286.726l-4.801,3.327c-5.125,3.553-12.185,2.272-15.737-2.853l-27.921-40.284
				c-3.552-5.125-2.273-12.186,2.853-15.737l6.876-4.767c1.004-0.696,2.383-0.446,3.079,0.559c0.696,1.004,0.446,2.383-0.558,3.079
				l-6.876,4.767c-3.12,2.162-3.898,6.459-1.736,9.578l27.921,40.284c2.162,3.12,6.459,3.898,9.578,1.736l4.802-3.328
				c3.119-2.162,3.898-6.458,1.736-9.578l-18.535-26.742c-0.696-1.004-0.446-2.383,0.558-3.079c1.005-0.696,2.384-0.446,3.08,0.558
				l18.535,26.742C432.884,1276.113,431.604,1283.173,426.479,1286.726z"/>
		</g>
		<g>
			<path style="fill:#AFCDFB;" d="M457.087,1326.453l-8.607,5.966c-7.991,5.538-19.32,3.079-25.254-5.483l-41.978-60.564
				c-0.696-1.004-0.446-2.383,0.559-3.079c1.004-0.696,2.383-0.446,3.08,0.558l41.978,60.564c4.544,6.557,13.11,8.516,19.095,4.367
				l8.607-5.966c5.985-4.148,7.157-12.856,2.614-19.413l-47.815-68.986c-4.544-6.556-13.11-8.515-19.095-4.366
				c-1.004,0.696-2.383,0.446-3.08-0.558c-0.696-1.005-0.446-2.384,0.559-3.08c7.991-5.538,19.32-3.079,25.254,5.482l47.815,68.986
				C466.751,1309.443,465.078,1320.915,457.087,1326.453z"/>
		</g>
	</g>
	<g>
		<g>
			<path style="fill:#AFCDFB;" d="M514.834,1642.778l1.036,8.531c1.105,9.107-5.405,17.417-14.513,18.521l-71.584,8.688
				c-9.107,1.105-17.417-5.405-18.521-14.513l-1.483-12.219c-0.217-1.785,1.055-3.407,2.84-3.624
				c1.785-0.217,3.408,1.055,3.625,2.84l1.483,12.219c0.672,5.544,5.729,9.506,11.272,8.833l71.585-8.688
				c5.543-0.673,9.506-5.729,8.833-11.272l-1.036-8.532c-0.672-5.543-5.73-9.506-11.272-8.833l-47.52,5.768
				c-1.785,0.217-3.408-1.056-3.625-2.84c-0.217-1.785,1.055-3.408,2.84-3.625l47.52-5.767
				C505.42,1627.16,513.729,1633.671,514.834,1642.778z"/>
		</g>
		<g>
			<path style="fill:#AFCDFB;" d="M587.538,1630.213l1.856,15.294c1.723,14.2-9.252,27.255-24.466,29.101l-107.621,13.062
				c-1.785,0.216-3.408-1.056-3.625-2.84c-0.216-1.785,1.055-3.408,2.84-3.625l107.621-13.061
				c11.649-1.414,20.077-11.217,18.787-21.853l-1.857-15.293c-1.29-10.636-11.818-18.139-23.468-16.725l-122.587,14.878
				c-11.65,1.413-20.077,11.216-18.786,21.852c0.216,1.785-1.055,3.407-2.84,3.624c-1.785,0.217-3.408-1.055-3.624-2.84
				c-1.723-14.199,9.252-27.254,24.466-29.101l122.587-14.877C572.035,1605.963,585.815,1616.014,587.538,1630.213z"/>
		</g>
	</g>
	
		<ellipse transform="matrix(0.2298 -0.9732 0.9732 0.2298 730.7878 2182.9885)" style="fill:#F99746;" cx="1744.558" cy="629.799" rx="9.923" ry="9.923"/>
	<path style="fill:#2E3552;" d="M3084.869,1789.291H191.228c-1.807,0-3.286-1.479-3.286-3.285v-1.121
		c0-1.808,1.479-3.286,3.286-3.286h2893.641c1.808,0,3.286,1.479,3.286,3.286v1.121
		C3088.155,1787.813,3086.677,1789.291,3084.869,1789.291z"/>
</g>
</svg>
